<svg viewBox="0 0 1928.8333740234375 400" xmlns="http://www.w3.org/2000/svg"><g><g><g><g><g><line x1="72.1240005493164" y1="376.9749994277954" x2="67.1240005493164" y2="376.9749994277954" style="visibility: inherit;" fill="rgb(0, 0, 0)" stroke="rgb(204, 204, 204)" stroke-width="1px"></line><line x1="72.1240005493164" y1="351.84333279927574" x2="67.1240005493164" y2="351.84333279927574" style="visibility: inherit;" fill="rgb(0, 0, 0)" stroke="rgb(204, 204, 204)" stroke-width="1px"></line><line x1="72.1240005493164" y1="326.711666170756" x2="67.1240005493164" y2="326.711666170756" style="visibility: inherit;" fill="rgb(0, 0, 0)" stroke="rgb(204, 204, 204)" stroke-width="1px"></line><line x1="72.1240005493164" y1="301.57999954223635" x2="67.1240005493164" y2="301.57999954223635" style="visibility: inherit;" fill="rgb(0, 0, 0)" stroke="rgb(204, 204, 204)" stroke-width="1px"></line><line x1="72.1240005493164" y1="276.4483329137167" x2="67.1240005493164" y2="276.4483329137167" style="visibility: inherit;" fill="rgb(0, 0, 0)" stroke="rgb(204, 204, 204)" stroke-width="1px"></line><line x1="72.1240005493164" y1="251.31666628519696" x2="67.1240005493164" y2="251.31666628519696" style="visibility: inherit;" fill="rgb(0, 0, 0)" stroke="rgb(204, 204, 204)" stroke-width="1px"></line><line x1="72.1240005493164" y1="226.1849996566773" x2="67.1240005493164" y2="226.1849996566773" style="visibility: inherit;" fill="rgb(0, 0, 0)" stroke="rgb(204, 204, 204)" stroke-width="1px"></line><line x1="72.1240005493164" y1="201.05333302815754" x2="67.1240005493164" y2="201.05333302815754" style="visibility: inherit;" fill="rgb(0, 0, 0)" stroke="rgb(204, 204, 204)" stroke-width="1px"></line><line x1="72.1240005493164" y1="175.92166639963787" x2="67.1240005493164" y2="175.92166639963787" style="visibility: inherit;" fill="rgb(0, 0, 0)" stroke="rgb(204, 204, 204)" stroke-width="1px"></line><line x1="72.1240005493164" y1="150.78999977111818" x2="67.1240005493164" y2="150.78999977111818" style="visibility: inherit;" fill="rgb(0, 0, 0)" stroke="rgb(204, 204, 204)" stroke-width="1px"></line><line x1="72.1240005493164" y1="125.65833314259848" x2="67.1240005493164" y2="125.65833314259848" style="visibility: inherit;" fill="rgb(0, 0, 0)" stroke="rgb(204, 204, 204)" stroke-width="1px"></line><line x1="72.1240005493164" y1="100.52666651407876" x2="67.1240005493164" y2="100.52666651407876" style="visibility: inherit;" fill="rgb(0, 0, 0)" stroke="rgb(204, 204, 204)" stroke-width="1px"></line><line x1="72.1240005493164" y1="75.3949998855591" x2="67.1240005493164" y2="75.3949998855591" style="visibility: inherit;" fill="rgb(0, 0, 0)" stroke="rgb(204, 204, 204)" stroke-width="1px"></line><line x1="72.1240005493164" y1="50.26333325703942" x2="67.1240005493164" y2="50.26333325703942" style="visibility: inherit;" fill="rgb(0, 0, 0)" stroke="rgb(204, 204, 204)" stroke-width="1px"></line><line x1="72.1240005493164" y1="25.13166662851969" x2="67.1240005493164" y2="25.13166662851969" style="visibility: inherit;" fill="rgb(0, 0, 0)" stroke="rgb(204, 204, 204)" stroke-width="1px"></line><line x1="72.1240005493164" y1="0" x2="67.1240005493164" y2="0" style="visibility: inherit;" fill="rgb(0, 0, 0)" stroke="rgb(204, 204, 204)" stroke-width="1px"></line></g><g transform="translate(62.124000549316406, 0)"><text style="text-anchor: end; visibility: hidden; font-family: Roboto, sans-serif; font-size: 12px; font-weight: 200;" x="0" y="376.9749994277954" dx="0em" dy="0.3em" fill="rgb(33, 33, 33)" stroke="none" stroke-width="1px">0</text><text style="text-anchor: end; visibility: inherit; font-family: Roboto, sans-serif; font-size: 12px; font-weight: 200;" x="0" y="351.84333279927574" dx="0em" dy="0.3em" fill="rgb(33, 33, 33)" stroke="none" stroke-width="1px">2e-4</text><text style="text-anchor: end; visibility: inherit; font-family: Roboto, sans-serif; font-size: 12px; font-weight: 200;" x="0" y="326.711666170756" dx="0em" dy="0.3em" fill="rgb(33, 33, 33)" stroke="none" stroke-width="1px">4e-4</text><text style="text-anchor: end; visibility: inherit; font-family: Roboto, sans-serif; font-size: 12px; font-weight: 200;" x="0" y="301.57999954223635" dx="0em" dy="0.3em" fill="rgb(33, 33, 33)" stroke="none" stroke-width="1px">6e-4</text><text style="text-anchor: end; visibility: inherit; font-family: Roboto, sans-serif; font-size: 12px; font-weight: 200;" x="0" y="276.4483329137167" dx="0em" dy="0.3em" fill="rgb(33, 33, 33)" stroke="none" stroke-width="1px">8e-4</text><text style="text-anchor: end; visibility: inherit; font-family: Roboto, sans-serif; font-size: 12px; font-weight: 200;" x="0" y="251.31666628519696" dx="0em" dy="0.3em" fill="rgb(33, 33, 33)" stroke="none" stroke-width="1px">1e-3</text><text style="text-anchor: end; visibility: inherit; font-family: Roboto, sans-serif; font-size: 12px; font-weight: 200;" x="0" y="226.1849996566773" dx="0em" dy="0.3em" fill="rgb(33, 33, 33)" stroke="none" stroke-width="1px">1.2e-3</text><text style="text-anchor: end; visibility: inherit; font-family: Roboto, sans-serif; font-size: 12px; font-weight: 200;" x="0" y="201.05333302815754" dx="0em" dy="0.3em" fill="rgb(33, 33, 33)" stroke="none" stroke-width="1px">1.4e-3</text><text style="text-anchor: end; visibility: inherit; font-family: Roboto, sans-serif; font-size: 12px; font-weight: 200;" x="0" y="175.92166639963787" dx="0em" dy="0.3em" fill="rgb(33, 33, 33)" stroke="none" stroke-width="1px">1.6e-3</text><text style="text-anchor: end; visibility: inherit; font-family: Roboto, sans-serif; font-size: 12px; font-weight: 200;" x="0" y="150.78999977111818" dx="0em" dy="0.3em" fill="rgb(33, 33, 33)" stroke="none" stroke-width="1px">1.8e-3</text><text style="text-anchor: end; visibility: inherit; font-family: Roboto, sans-serif; font-size: 12px; font-weight: 200;" x="0" y="125.65833314259848" dx="0em" dy="0.3em" fill="rgb(33, 33, 33)" stroke="none" stroke-width="1px">2e-3</text><text style="text-anchor: end; visibility: inherit; font-family: Roboto, sans-serif; font-size: 12px; font-weight: 200;" x="0" y="100.52666651407876" dx="0em" dy="0.3em" fill="rgb(33, 33, 33)" stroke="none" stroke-width="1px">2.2e-3</text><text style="text-anchor: end; visibility: inherit; font-family: Roboto, sans-serif; font-size: 12px; font-weight: 200;" x="0" y="75.3949998855591" dx="0em" dy="0.3em" fill="rgb(33, 33, 33)" stroke="none" stroke-width="1px">2.4e-3</text><text style="text-anchor: end; visibility: inherit; font-family: Roboto, sans-serif; font-size: 12px; font-weight: 200;" x="0" y="50.26333325703942" dx="0em" dy="0.3em" fill="rgb(33, 33, 33)" stroke="none" stroke-width="1px">2.6e-3</text><text style="text-anchor: end; visibility: inherit; font-family: Roboto, sans-serif; font-size: 12px; font-weight: 200;" x="0" y="25.13166662851969" dx="0em" dy="0.3em" fill="rgb(33, 33, 33)" stroke="none" stroke-width="1px">2.8e-3</text><text style="text-anchor: end; visibility: hidden; font-family: Roboto, sans-serif; font-size: 12px; font-weight: 200;" x="0" y="0" dx="0em" dy="0.3em" fill="rgb(33, 33, 33)" stroke="none" stroke-width="1px">3e-3</text></g><line x1="72.1240005493164" y1="0" x2="72.1240005493164" y2="376.9749994277954" fill="rgb(0, 0, 0)" stroke="rgb(204, 204, 204)" stroke-width="1px"></line></g></g><g transform="translate(72, 0)" clip-path="url(#clip_0)"><clipPath id="clip_0"><rect width="1856" height="376"></rect></clipPath><g><g><g><line x1="0" y1="0" x2="0" y2="376.9749994277954" fill="rgb(0, 0, 0)" stroke="rgb(66, 66, 66)" stroke-width="1px" opacity="0.25"></line><line x1="154.7254999542236" y1="0" x2="154.7254999542236" y2="376.9749994277954" fill="rgb(0, 0, 0)" stroke="rgb(66, 66, 66)" stroke-width="1px" opacity="0.25"></line><line x1="309.4509999084472" y1="0" x2="309.4509999084472" y2="376.9749994277954" fill="rgb(0, 0, 0)" stroke="rgb(66, 66, 66)" stroke-width="1px" opacity="0.25"></line><line x1="464.1764998626709" y1="0" x2="464.1764998626709" y2="376.9749994277954" fill="rgb(0, 0, 0)" stroke="rgb(66, 66, 66)" stroke-width="1px" opacity="0.25"></line><line x1="618.9019998168944" y1="0" x2="618.9019998168944" y2="376.9749994277954" fill="rgb(0, 0, 0)" stroke="rgb(66, 66, 66)" stroke-width="1px" opacity="0.25"></line><line x1="773.6274997711182" y1="0" x2="773.6274997711182" y2="376.9749994277954" fill="rgb(0, 0, 0)" stroke="rgb(66, 66, 66)" stroke-width="1px" opacity="0.25"></line><line x1="928.3529997253418" y1="0" x2="928.3529997253418" y2="376.9749994277954" fill="rgb(0, 0, 0)" stroke="rgb(66, 66, 66)" stroke-width="1px" opacity="0.25"></line><line x1="1083.0784996795655" y1="0" x2="1083.0784996795655" y2="376.9749994277954" fill="rgb(0, 0, 0)" stroke="rgb(66, 66, 66)" stroke-width="1px" opacity="0.25"></line><line x1="1237.8039996337889" y1="0" x2="1237.8039996337889" y2="376.9749994277954" fill="rgb(0, 0, 0)" stroke="rgb(66, 66, 66)" stroke-width="1px" opacity="0.25"></line><line x1="1392.5294995880126" y1="0" x2="1392.5294995880126" y2="376.9749994277954" fill="rgb(0, 0, 0)" stroke="rgb(66, 66, 66)" stroke-width="1px" opacity="0.25"></line><line x1="1547.2549995422364" y1="0" x2="1547.2549995422364" y2="376.9749994277954" fill="rgb(0, 0, 0)" stroke="rgb(66, 66, 66)" stroke-width="1px" opacity="0.25"></line><line x1="1701.9804994964597" y1="0" x2="1701.9804994964597" y2="376.9749994277954" fill="rgb(0, 0, 0)" stroke="rgb(66, 66, 66)" stroke-width="1px" opacity="0.25"></line><line x1="1856.7059994506835" y1="0" x2="1856.7059994506835" y2="376.9749994277954" fill="rgb(0, 0, 0)" stroke="rgb(66, 66, 66)" stroke-width="1px" opacity="0.25"></line></g><g><line x1="0" y1="376.9749994277954" x2="1856.7059994506835" y2="376.9749994277954" fill="rgb(0, 0, 0)" stroke="rgb(66, 66, 66)" stroke-width="1px" opacity="0.25"></line><line x1="0" y1="351.84333279927574" x2="1856.7059994506835" y2="351.84333279927574" fill="rgb(0, 0, 0)" stroke="rgb(66, 66, 66)" stroke-width="1px" opacity="0.25"></line><line x1="0" y1="326.711666170756" x2="1856.7059994506835" y2="326.711666170756" fill="rgb(0, 0, 0)" stroke="rgb(66, 66, 66)" stroke-width="1px" opacity="0.25"></line><line x1="0" y1="301.57999954223635" x2="1856.7059994506835" y2="301.57999954223635" fill="rgb(0, 0, 0)" stroke="rgb(66, 66, 66)" stroke-width="1px" opacity="0.25"></line><line x1="0" y1="276.4483329137167" x2="1856.7059994506835" y2="276.4483329137167" fill="rgb(0, 0, 0)" stroke="rgb(66, 66, 66)" stroke-width="1px" opacity="0.25"></line><line x1="0" y1="251.31666628519696" x2="1856.7059994506835" y2="251.31666628519696" fill="rgb(0, 0, 0)" stroke="rgb(66, 66, 66)" stroke-width="1px" opacity="0.25"></line><line x1="0" y1="226.1849996566773" x2="1856.7059994506835" y2="226.1849996566773" fill="rgb(0, 0, 0)" stroke="rgb(66, 66, 66)" stroke-width="1px" opacity="0.25"></line><line x1="0" y1="201.05333302815754" x2="1856.7059994506835" y2="201.05333302815754" fill="rgb(0, 0, 0)" stroke="rgb(66, 66, 66)" stroke-width="1px" opacity="0.25"></line><line x1="0" y1="175.92166639963787" x2="1856.7059994506835" y2="175.92166639963787" fill="rgb(0, 0, 0)" stroke="rgb(66, 66, 66)" stroke-width="1px" opacity="0.25"></line><line x1="0" y1="150.78999977111818" x2="1856.7059994506835" y2="150.78999977111818" fill="rgb(0, 0, 0)" stroke="rgb(66, 66, 66)" stroke-width="1px" opacity="0.25"></line><line x1="0" y1="125.65833314259848" x2="1856.7059994506835" y2="125.65833314259848" fill="rgb(0, 0, 0)" stroke="rgb(66, 66, 66)" stroke-width="1px" opacity="0.25"></line><line x1="0" y1="100.52666651407876" x2="1856.7059994506835" y2="100.52666651407876" fill="rgb(0, 0, 0)" stroke="rgb(66, 66, 66)" stroke-width="1px" opacity="0.25"></line><line x1="0" y1="75.3949998855591" x2="1856.7059994506835" y2="75.3949998855591" fill="rgb(0, 0, 0)" stroke="rgb(66, 66, 66)" stroke-width="1px" opacity="0.25"></line><line x1="0" y1="50.26333325703942" x2="1856.7059994506835" y2="50.26333325703942" fill="rgb(0, 0, 0)" stroke="rgb(66, 66, 66)" stroke-width="1px" opacity="0.25"></line><line x1="0" y1="25.13166662851969" x2="1856.7059994506835" y2="25.13166662851969" fill="rgb(0, 0, 0)" stroke="rgb(66, 66, 66)" stroke-width="1px" opacity="0.25"></line><line x1="0" y1="0" x2="1856.7059994506835" y2="0" fill="rgb(0, 0, 0)" stroke="rgb(66, 66, 66)" stroke-width="1px" opacity="0.25"></line></g></g></g><g><g><line x1="0" y1="376.9749994277954" x2="1856.7059994506835" y2="376.9749994277954" fill="rgb(0, 0, 0)" stroke="rgb(153, 153, 153)" stroke-width="1.5px"></line></g></g><g><g><line x1="154.7254999542236" y1="0" x2="154.7254999542236" y2="376.9749994277954" fill="rgb(0, 0, 0)" stroke="rgb(153, 153, 153)" stroke-width="1.5px"></line></g></g><g><g><g><g><g><path style="fill: none;" stroke="rgb(0, 153, 136)" stroke-width="2px" d="M268.3249620206146,-0.8483924685053504L269.5937111202392,2.7164178362721194L271.75986811959837,6.087406146905002L273.80224471899413,8.681248707723311L275.87556641838074,11.599124213865522L278.87724111749264,15.495483682354992L279.217637217392,17.813460331245643L281.8789158166046,20.828212561967657L282.25025701649474,19.326283424596856L284.10696301594544,19.677011677632642L284.44735911584473,23.25949314600749L285.53043761552425,26.731251486476587L288.34644171469114,28.416328027166884L288.6558927145996,25.564410040662793L295.18530881266787,27.898058711862085L295.95893631243894,30.527501015882915L298.58926981166076,33.573268904332956L299.8580189112854,36.60691746848912L304.2522231099853,39.651978689165496L304.3760035099487,42.82610196383062L305.7994781095276,45.579296693239684L311.895662807724,48.015018105389466L312.17416870764157,46.14780602214115L312.23605890762326,49.007458410595135L313.53575310723875,51.30414361007631L313.6595335072021,53.802383791364846L314.2474904070282,56.53259233362966L315.2377336067352,58.80853323231565L315.6400199066162,59.053378806308004L316.4136474063873,61.072505049050704L317.5586161060486,63.628550896685866L318.5798044057465,66.03755424119042L320.653126105133,67.98737986785696L321.92187520475767,70.07023401763462L323.50007530429076,71.81315452992222L330.0913816023407,71.93969136551598L332.9073857015075,74.20791509807138L335.19732310083003,76.69876604991099L336.2494565005188,78.20682508472798L336.65174280039975,80.30911097824915L339.0345154996948,81.2737983755545L339.80814299946593,81.6461833185692L340.30326459931945,81.02188981714995L342.03619019880676,82.93319023283195L343.83100599827577,84.61542174733314L344.6665236980286,82.60657756928738L344.79030409799196,84.67549738363226L347.35874739723204,86.8897924306365L347.91575919706725,85.88900935421029L349.02978279673766,87.86015263624299L350.6698730962524,89.5999251957601L350.73176329623413,91.06213960059529L351.47444569601436,91.24400685799955L351.5053907960052,92.82214246267883L351.6601162959595,94.91642444141159L351.8148417959137,96.92446249523252L357.44684999424743,98.87727634391082L358.00386179408264,100.33273635581088L358.49898339393616,102.27413098186918L358.6537088938903,103.96654871196996L358.932214793808,105.66374715653335L362.9860228926086,106.624149057083L363.6049248924255,108.2122991286385L365.21407009194945,110.06943040989819L366.45187409158325,111.72821478802503L366.69943489151,113.52633049499057L368.83464679087825,114.50578229457663L371.0626939902191,114.51758312507498L371.2174194901733,115.53202261358838L371.279309690155,115.64089928697426L373.0122352896423,117.24947848078776L376.4161962886352,118.8814804142154L377.74683558824154,120.49563457757763L379.1703101878204,121.94360772769573L380.8722906873169,123.40051099714434L382.2648201869049,124.90421953095691L384.833263486145,126.49430672755457L385.69972628588863,127.5947778955353L385.82350668585207,129.0980001188685L385.88539688583376,130.17558889655427L386.9994204855041,131.69065319598303L388.14438918516544,133.12442110010102L389.6916441847076,134.44768096612006L390.0320402846069,135.01354259841114L391.2698442842407,136.36173982668387L393.83828758348085,136.640444351191L393.9311228834534,137.9806465701218L394.73569548321535,139.30848591806964L395.9116092828674,140.62203913428124L396.7471269826202,141.07824964399487L397.79926038230894,142.34709750423403L399.03706438194274,143.68377968402186L401.85306848110963,144.81412020373475L406.0616020798645,145.95114825215225L411.2913239783172,147.27863232228478L414.5715045773468,148.58350063689738L419.2442146759643,149.4808474434697L419.4298852759094,150.70645334579598L421.4103716753235,151.8720677544955L422.6791207749481,153.09154806438318L423.7621992746277,153.6232389192343L424.690552274353,154.49618804314056L425.5570150740966,155.7214466435434L426.29969747387696,156.87864367926943L426.3615876738586,158.08668655073143L427.7541171734466,159.09081616336297L428.0635681733551,160.24597448334782L429.2085368730163,161.1290489674824L429.42515257295224,162.11267959001827L435.0262156712952,163.1550135188274L436.97575697071835,164.04539901374926L437.93505507043454,165.00882118001698L441.02956506951904,165.86042222757624L442.236423969162,166.82907476482714L442.60776516905213,167.8977841923019L443.35044756883235,168.90265668560818L444.34069076853945,169.61887276147763L449.8798636669006,170.55900831172607L450.15836956681824,171.56994859043198L453.99556196568295,172.5994520908045L455.2643110653076,172.20442990911405L456.53306016493224,173.1600063279629L456.5640052649231,174.08600626041147L457.1210170647583,174.97391270112396L459.13244856416316,175.75189584426306L460.0608015638885,176.76129108498284L460.8963192636413,177.66047732372326L461.6080565634308,178.57509062204457L462.567354663147,179.50055308383259L462.59829976313785,180.0654549292902L462.9386958630371,180.98427873609572L463.34098216291807,181.9189463958699L463.52665276286314,182.82373664280357L463.95988416273497,183.6319631614142L466.1260411620941,184.41748502995887L466.9615588618469,185.3309860021445L467.9208569615631,185.76115367643328L468.4469236614075,186.5812505581167L470.0870139609222,187.31593122504893L470.61308066076657,188.1719670032568L470.8296963607025,189.05736619017907L474.75972405953974,189.7116231641869L474.85255935951227,190.084714685483L474.8835044595031,190.86217564542804L476.3998143590545,191.66850285261046L477.9470693585968,192.46360899070646L478.34935565847775,193.22022025409004L479.67999495808414,193.97762292230902L480.20606165792844,194.7103055518445L481.53670095753483,195.2699725534159L484.074199156784,195.7028043192305L484.1360893567657,196.20869377644917L486.0546855561981,197.0103830377733L486.3641365561066,197.69931227967217L486.58075225604244,198.38653086240674L495.833337153305,199.01039859723832L495.98806265325925,199.6614388118972L496.235623453186,200.30018842520352L496.7926352530212,201.07336204551152L498.030439252655,201.80937388426742L498.7731216524353,202.54073339722584L498.95879225238036,203.29265619693595L501.68196105157466,203.98597653777787L501.86763165151973,204.33196027245555L505.3644279504852,204.98995820375924L507.31396924990844,204.1462008078239L507.7781457497711,204.54227367589363L508.83027914945984,205.25598488042905L519.4444484463196,205.6413582126834L520.4656367460174,206.34832939200606L521.332099545761,206.96041037941276L521.951001545578,207.58196639209294L525.2002370446166,208.1892741467731L526.9022175441131,208.76551816871233L528.4185274436645,209.33033634393L531.4820923427582,209.92067254840552L531.6058727427215,210.50971771496936L533.3387983422089,211.04746060491468L535.4121200415955,211.72931778069778L535.8453514414673,212.3777937639535L537.0212652411194,212.96849326292937L538.3828496407165,213.4811500257068L538.4447398406982,213.8344453871831L539.5897085403595,214.44615638247458L540.7965674400024,215.0531020396017L540.9203478399658,215.61800474170235L543.2102852392883,215.8687070508429L544.664704938858,216.37406049984108L547.9758306378784,213.2927026864615L553.9482349361115,213.77749194987643L554.0720153360749,214.397938529518L555.2788742357177,214.81018266512183L556.1453370354614,215.4075134151793L556.2691174354247,215.9167058137131L562.8294786334839,216.21199818958002L566.4191102324219,216.81295176696224L567.8116397320099,217.19418324796519L569.0184986316528,217.78189507243644L569.9468516313782,218.32464713842026L571.0918203310393,218.8591642721457L573.165142030426,219.34936834733756L574.0316048301696,219.85747261343627L574.2791656300965,219.94656576670417L576.2905971295013,220.49855460505597L576.8785540293273,221.03867428868608L577.0332795292817,221.5135703076142L581.8297700278625,222.01362811254134L583.2841897274322,222.56554714503162L587.0594919263152,223.11825605502605L587.3379978262329,223.67659703941115L588.1425704259948,224.13231352022524L589.3803744256287,224.34795165183027L593.4341825244293,224.84628117343763L593.7745786243286,225.38378433274664L594.3315904241638,225.9405141715279L595.9407356236877,226.44054503972413L596.1573513236236,226.94911452219569L598.9114652228088,227.35872630849624L599.1280809227447,227.87907263678682L600.4896653223419,228.35610978289225L600.9228967222137,228.86748365274838L604.5125283211518,229.29444890629142L605.8122225207671,229.77813317647434L607.235697120346,230.27286779605126L607.9164893201447,230.71115189130106L611.0109993192291,231.20912156532907L613.3009367185516,231.6555780220206L614.2911799182586,232.09890267768904L614.6934662181396,232.57810462401338L614.817246618103,232.96122118178732L616.5811173175812,233.43527241878286L617.0452938174437,233.68524345260315L619.4899567167206,234.12713032338135L620.9134313162994,234.30973610326777L620.9443764162903,234.7295362790913L621.0681568162537,235.07706278759338L622.3059608158874,235.25760442773503L622.7391922157592,235.68264059032109L623.1724236156311,236.14886867573892L623.6366001154937,236.52181161945578L624.6268433152007,236.95054792133305L625.0600747150726,237.40996743451066L629.2376632138366,237.7297394681035L630.1041260135803,238.16874496950845L630.3826319134979,238.58437469859948L631.8989418130493,239.03321062616064L633.0439105127105,239.3624776574884L634.0960439123993,239.68251485480863L637.8094559113007,240.1143543981534L638.6759187110442,240.52100542731569L640.9658561103668,240.93543490300044L642.4512209099273,241.35072358144674L643.4724092096253,241.63324017803004L644.307926909378,242.03694952092624L645.9480172088928,242.41842247341003L647.4643271084442,242.74211597154212L650.868288107437,243.09967373262086L652.2298725070343,243.48988352749038L653.4986216066588,243.85952232196854L655.6028884060364,244.29745755292626L655.6338335060273,244.7116290122741L657.3358140055236,245.12937891119364L659.5638612048645,244.81465715095618L660.5850495045623,245.24381626807872L662.0085241041412,245.6067952327898L662.5964810039673,246.00068985656765L663.0916026038208,246.37744153006147L672.4989130010376,246.77375882091147L672.622693401001,247.11791556802515L675.6862583000946,247.4897825276582L676.6765014998016,247.88361305459156L677.1097328996735,248.2612587768126L677.202568199646,248.6457464089717L677.9452505994262,248.9704842865787L679.18305459906,249.22814342114202L683.174972497879,249.61499827936703L684.5365568974761,249.99100672733204L684.7222274974213,250.35375711395594L684.7531725974121,250.73493079917145L688.9617061961669,250.939684762406L689.2711571960755,251.3002568346496L693.0155142949677,251.67256108966967L694.1604829946289,252.03565964795717L698.2452361934204,252.30613902073205L700.3804480927886,252.62907550259436L702.1133736922759,252.97487886199838L702.3918795921936,253.28150911285817L703.4440129918823,253.55026961151214L704.5889816915436,253.89650785304073L708.0857779905091,249.63627915372496L709.7568133900146,249.82902185500998L711.9229703893737,250.1748237373704L715.5126019883118,250.45488956622543L715.7601627882385,250.77288281216502L715.8839431882019,251.07418570753592L716.0077235881653,251.3577406125491L718.1738805875243,251.67052046434515L720.3090924868927,252.0067229515715L722.04201808638,252.31226490017997L724.3010103857116,252.45160481798905L725.0436927854919,252.74735448785844L726.2505516851348,252.98599185922754L726.6528379850158,253.25615917753936L726.9313438849334,253.56570326782085L727.9215870846405,253.90508290519074L730.8304264837799,254.20534255322156L731.3874382836151,254.50103567150336L735.2555757824707,254.84178141326208L735.4412463824158,255.1391447611013L735.5340816823883,255.47722552244312L735.9054228822783,255.82262971491804L736.3695993821411,256.0194453662191L739.7426152811431,256.2672334922347L742.4348389803466,256.53438735928734L746.0863607792663,256.79239213709866L746.2101411792297,257.09565707144526L749.1808707783508,257.34737287870564L751.3160826777191,257.59458801667245L752.5848317773437,257.8925326106667L754.3796475768127,258.2039327155192L755.2770554765472,258.4985794514941L755.7102868764191,258.80331788280273L758.1240046757049,259.13512851975145L758.2168399756774,259.42778578484143L759.6093694752655,259.7302818150159L761.8064715746154,260.0192357217638L762.9514402742767,260.30154809316866L768.7381739725646,260.606556590677L769.3570759723815,260.905407107099L770.4092093720702,261.20208715898025L770.9043309719239,261.5032009513571L771.244727071823,261.78616039160596L773.1014330712737,262.01157557634434L773.2252134712371,262.1647056357973L773.6274997711182,262.46151071554357L774.0916762709808,262.7432750671596L783.2823709682617,262.9952070969242L784.8605710677948,263.21291749358267L785.8508142675018,263.51319219772626L786.1293201674195,263.6595099617028L786.7172770672455,263.91256541963764L787.2742888670806,264.2127357870212L788.9143791665954,264.4900577012753L791.5447126658172,264.7448858670642L791.6375479657897,265.00760727183524L792.782516665451,265.26729935428125L793.6489794651947,265.54072513913667L794.2059912650299,265.58306161881643L794.2678814650116,265.7640064516503L797.176720864151,266.03763236809726L799.6832739634094,266.27898269133766L802.963454562439,266.5045427374998L803.0872349624022,266.77566952495977L803.6133016622467,266.98237731507635L803.768027162201,267.1970927180951L803.9536977621459,267.37185845473545L804.6035448619538,267.5924265528311L805.7175684616241,267.8486445705821L806.2126900614776,268.0989280669445L808.5954627607726,268.3681234792627L811.8137531598205,268.55346487052L812.8658865595092,268.7539800991623L814.2274709591064,269.01444201685644L816.6721338583832,269.28361729488086L817.5695417581177,269.5360594825254L822.6135930566253,269.7583437551188L822.9539891565246,269.97836744534965L823.1087146564789,270.2498843016933L823.8204519562682,270.4929712175553L825.5224324557647,270.7585128797835L825.5843226557464,270.9459432929187L829.7309660545196,271.1585524867297L830.7521543542175,271.35279951821826L837.4981861522217,271.6107028555309L838.240868552002,271.8581810724218L840.0666294514618,272.086769182789L840.5617510513152,272.2966751631413L842.6350727507019,272.55412682793263L844.3679983501892,272.7933956167905L845.0487905499878,273.0372609937037L847.2458926493377,273.2525986208162L847.3077828493194,273.3567322852832L848.4527515489807,273.5961482567569L857.2721050463714,273.82180430452405L858.943140445877,274.0526219130414L859.7167679456481,274.0865046265007L864.0490819443664,274.32000569598216L868.6908469429931,274.539862956585L869.4025842427826,274.7455509516541L869.7739254426726,274.9837050339336L875.7153846409149,275.19850342331426L876.7056278406219,275.45193372812685L879.0574554399261,275.6619722830058L879.088400539917,275.88357624815137L881.9662948390654,276.03539517582567L884.7204087382506,276.278518675715L884.7822989382323,276.5169551620406L886.4533343377379,276.7180882726914L886.5461696377105,276.93164788834594L899.6359469338378,277.145114090251L909.167037731018,277.36016780739095L911.9830418301849,277.5411664673704L912.1068222301483,276.3198304918165L912.6947791299743,276.5338722131115L916.2225205289307,276.71571023377777L919.2551403280333,276.9225705158302L919.6883717279053,276.69891996677785L920.926175727539,276.91928256652545L923.0923327268981,277.03407533589115L923.5565092267608,277.24425881291006L924.5467524264678,277.46052676728755L924.7633681264037,277.636038204859L926.4962937258911,277.8275758323237L927.115195725708,278.04191086483576L927.1770859256897,278.21760922459475L928.1363840254058,278.409086066191L930.0549802248382,278.6258311910023L931.8807411242981,278.70492033867583L934.2016236236113,278.89999076102026L936.1202198230437,278.9965176228544L940.7310397216797,279.16874568359435L942.1545143212584,279.3575163488716L942.866251621048,279.5567251622377L948.4982598193817,279.7446577160797L950.1692952188873,279.9377665757298L950.4787462187958,280.1345029576612L950.5406364187775,280.32583700806714L951.840330618393,280.51812266592185L953.604201317871,280.65817850170964L956.4820956170196,280.8506715362767L956.791546616928,281.04553057725593L957.1628878168182,281.2307155821387L962.3616646152801,281.4045357010222L962.6401705151976,281.5348311664094L962.8877313151244,281.7343458547619L963.1352921150514,281.88347746781056L964.0945902147674,282.065812881569L967.4985512137604,282.24621555523237L968.3340689135131,282.4499075383403L968.7363552133942,282.62943383836205L968.7982454133759,282.8205551753707L971.0262926127167,282.8649008459732L972.3878770123139,283.0498939277814L976.3797949111329,283.21938011155237L977.524763610794,283.42008164786694L977.6794891107481,283.5865772219587L979.3505245102538,283.72410303626333L980.8049442098236,283.8942780157819L982.6616502092743,284.08310442707534L984.5802464087067,284.2429756671596L984.6111915086975,284.42523414440933L987.6438113078003,284.5967181078875L989.3767369072876,284.78006841496926L990.7383213068847,284.9457777731831L991.2024978067475,285.11285724400676L992.1308508064727,285.29460166000746L993.5233803060607,285.410994677039L994.1113372058868,285.5977702653468L994.637403905731,285.78108459242173L999.836180704193,285.9426141405282L1001.6619416036528,286.1085825063783L1003.9828241029662,286.2389404195248L1004.0756594029388,286.17389416042215L1004.3541653028565,286.3483630812412L1006.4274870022431,284.3061930577948L1006.9226086020965,284.47175102188066L1009.6767225012816,284.61018829053654L1010.4503500010528,284.77713162069057L1014.8136090997618,284.95311528832866L1015.8347973994598,285.12990930659424L1016.0823581993866,285.2761206818683L1017.9700092988281,285.4189521317702L1021.4358604978028,285.56523628329575L1022.6427193974456,285.74023742472104L1024.4065900969238,285.80395062280644L1027.5320451959992,285.838487241721L1028.1200020958252,285.9940797239128L1032.4832611945344,286.1497619982465L1035.2373750937195,286.2915065044045L1035.4849358936463,286.4550769552306L1037.1869163931426,286.4979579638798L1039.3530733925018,286.6463699868903L1040.281426392227,286.79473386925633L1040.6837126921082,286.9626811557132L1045.7587090906068,287.08854912233124L1045.8205992905885,287.2268823920088L1047.6773052900392,287.39793263701154L1048.5437680897826,287.54376475358265L1051.3288270889589,287.66157539784564L1051.3907172889406,287.80409760674246L1051.7001682888488,287.8437475804228L1055.877756787613,287.8624619627125L1056.0943724875488,288.0073069243329L1060.210070786331,288.13384956997965L1061.7882708858642,288.2637917943999L1063.1189101854704,288.32048547651164L1064.6971102850036,288.38427386608845L1065.5326279847563,288.42015547487733L1067.3583888842163,288.55806092755284L1069.6792713835298,288.70578156378673L1071.381251883026,288.8465386816517L1071.8763734828797,288.9049460655425L1072.9594519825591,289.05659767106295L1073.1451225825042,289.1697625300718L1076.4562482815245,289.3115175928511L1076.6728639814605,289.47450029493695L1077.198930681305,289.6329489531446L1077.9106679810943,289.7737277750163L1078.4367346809386,289.83703828990843L1079.2413072807008,289.95036893567135L1081.9954211798859,290.09620078198105L1082.335817279785,290.24830190274065L1083.1094447795563,290.3548261452143L1084.8423703790436,290.5014641579277L1085.2137115789337,290.61994806623625L1085.6159978788146,290.7611619248797L1089.329409877716,290.8618563680605L1090.6600491773224,290.9951550653236L1091.0004452772216,291.08367897879873L1091.0623354772033,291.1556634577237L1091.1861158771667,291.26260435610607L1092.4239198768005,291.39747017834077L1093.4451081764983,291.4316647550963L1093.9402297763518,291.43513279843154L1102.1406812739258,291.5704152224963L1104.49250887323,291.6925980828324L1104.8947951731109,291.8236034318264L1106.3801599726714,291.94007664455256L1110.7434190713805,291.59376732276723L1111.5789367711334,291.67024685410223L1112.3525642709044,291.80794041529447L1112.631070170822,291.9300339049165L1112.8167407707672,292.06181005464396L1113.064301570694,292.1871684794376L1114.2711604703368,289.1079661845637L1117.7370116693114,287.59504548303266L1120.61490596846,287.7255177492758L1121.6360942681579,287.8752168986246L1123.802251267517,287.94879302124247L1125.7208474669494,288.055570447772L1126.7729808666381,288.13724872416435L1128.5987417660979,288.25307903752656L1132.8691655648345,288.4015217591756L1133.5499577646333,288.550920598507L1134.5092558643494,288.69186044095426L1135.6232794640198,288.76637848838857L1135.7470598639832,288.9147353617353L1135.99462066391,289.0492731407048L1137.944161963333,289.17682822412087L1138.0369972633057,289.2949105980736L1141.2862327623443,289.4209526053221L1141.9979700621336,289.5554276920555L1142.4930916619871,289.6776888794546L1142.9263230618592,289.7997134143909L1143.5761701616668,289.7979571831577L1144.2879074614561,289.57880940911883L1144.8449192612916,289.70574616956765L1145.4638212611083,289.81395504923654L1150.3840921596527,289.96039329473876L1151.4671706593322,290.0550349826768L1152.890645258911,290.1459937490776L1160.7197555565947,288.33446374596133L1161.1529869564665,288.4564266315426L1162.638351756027,288.5757090140629L1164.092771455597,288.7203762691325L1168.1156344544067,287.4211125021505L1170.1270659538116,287.56925531558903L1170.1580110538025,287.6824431452771L1170.5293522536924,287.8045008326898L1170.5602973536834,287.8741080094722L1172.9430700529786,287.99850673917643L1174.9235564523926,288.12495034279203L1175.5424584522093,288.213443394815L1176.3470310519713,288.3092095012356L1181.7005333503876,288.4131032630598L1182.9383373500214,288.5248248139173L1184.609372749527,288.62556202743235L1188.1371141484833,288.7513721832546L1188.6012906483459,288.8258212240127L1188.7560161483002,288.0632492767719L1189.158302448181,288.16556947960794L1189.6224789480439,288.2702291049157L1197.6682049456633,288.4071483833197L1197.91576574559,288.27434821666907L1199.1845148452148,288.3943629438056L1200.8246051447297,288.52425160630094L1201.6601228444824,288.6696190220626L1202.557530744217,288.7923631053905L1202.7122562441712,288.90068950213237L1202.7741464441528,288.56796971226555L1203.3930484439697,288.6417368832215L1207.5706369427337,288.7605820628596L1209.6749037421112,288.7085575353379L1210.2319155419464,288.8326749993408L1213.0169745411224,288.9625711262334L1215.461637440399,288.9942089750427L1215.6163629403532,289.1051021828866L1218.1848062395934,289.25265023935356L1221.2793162386781,289.30552339134726L1221.6197123385773,288.4811459342912L1222.3623947383576,288.5694366425203L1226.1995871372221,288.7112178676508L1227.5921166368103,288.58941174767153L1229.8511089361418,288.7249604472028L1232.017265935501,288.8629215335361L1234.0596425348967,288.9982824530273L1235.0498857346038,289.1244030885643L1235.7306779344024,289.24902246522333L1235.9472936343382,289.3401832309209L1236.2257995342559,289.4724288312691L1236.2876897342378,289.5969055845121L1236.3495799342195,289.72513324036464L1236.8447015340728,289.8402161884363L1238.4847918335877,289.9576926414589L1239.2893644333496,290.068279765883L1240.186772333084,290.19746883820017L1241.3936312327269,290.3311338722297L1242.198203832489,290.43791630629875L1243.2193921321868,290.5691166821398L1244.580976531784,290.6802811791781L1249.5321925303192,290.77701222192866L1251.5436240297242,290.9202596812311L1252.2244162295226,291.0454637019694L1252.6267025294035,291.1653660225391L1254.143012428955,291.2950485875912L1254.916639928726,291.4301153183511L1255.7831027284699,291.4960559076089L1256.0616086283874,291.60796391683203L1257.5160283279572,291.7471944306839L1259.6512402273254,291.87949267511885L1261.507946226776,291.96590903839916L1264.1382797259978,292.00751193180537L1264.911907225769,292.1029449939901L1266.1187661254119,292.22681880877633L1267.2018446250916,292.33548756010606L1268.8109898246155,292.4599723441975L1269.0585506245422,292.54343100853464L1273.2051940233152,292.66483502718245L1274.5667784229126,292.80148603855827L1276.9186060222166,292.9329709961451L1277.1971119221344,293.0613169020729L1284.3144849200287,293.1851081471145L1285.1500026197816,293.3061841423489L1287.2542694191588,291.4311846430911L1287.7493910190124,291.50080007708067L1288.3373479188383,291.6209868963412L1290.039328418335,291.75807798694626L1290.2868892182616,291.8652318938529L1291.400912817932,291.95312934974885L1295.5475562167053,292.05055010653376L1296.2283484165039,292.18859824091345L1296.2902386164856,292.3103682633608L1296.3830739164582,292.4363598631162L1296.7544151163484,292.57016244251326L1297.18764651622,292.7013536223034L1297.8065485160369,292.8281171986211L1297.961274015991,291.02972532956414L1298.0541093159638,291.1145380108702L1299.6323094154966,291.22237165855876L1301.7675213148652,291.34034588960776L1302.2007527147368,291.4328951375385L1303.345721414398,291.4995142476653L1305.0786470138853,291.617494534399L1305.3880980137938,291.7325369695278L1306.0688902135926,291.8327536001173L1311.1129415121002,291.95722345627496L1315.166749610901,292.05494744192964L1316.0022673106537,292.1423305282824L1316.0641575106354,292.2251525468735L1317.518577210205,292.2847321225358L1318.6635459098663,292.368680352792L1319.7775695095368,291.973954840064L1320.6130872092897,292.08958888703205L1322.933969708603,292.22098313574406L1324.6050051081086,292.3235243924598L1324.7597306080627,292.3504418952892L1328.7516485068816,292.4701692869542L1330.113232906479,292.55129516323L1336.1475274046936,292.6811000094024L1342.6459984027708,292.8019947667719L1342.6769435027618,292.8139929821846L1343.1101749026336,292.931952949316L1343.3267906025696,293.03411406943485L1345.7714535018463,293.14643177355475L1346.7307516015626,293.2440692421987L1348.1232811011505,293.3366086433682L1355.6119952989347,293.42797351436946L1356.6641286986237,293.5303242456896L1357.9328777982482,293.62845829412504L1358.4898895980834,293.7264106119575L1358.8302856979828,293.7995877224444L1362.4199172969206,293.90406690466L1363.0388192967375,293.99297510614457L1364.1218977964172,294.0623232472813L1367.959090195282,294.16929173025466L1368.9802784949798,294.221512190436L1369.0112235949705,294.1423406055655L1373.9933846934966,294.2312033725841L1375.6025298930206,294.31747894950473L1376.4071024927825,294.3660750833255L1378.697039892105,294.4021870430117L1379.8420085917662,294.5013075871068L1380.244294891647,294.6046774419473L1383.1531342907867,294.6918899082191L1383.679200990631,294.7798494199615L1383.9886519905394,294.89124841721423L1384.0814872905119,294.9830779930375L1386.7427658897248,295.08103518736806L1389.7134954888456,295.1019774903098L1391.0131896884611,294.10193136464557L1392.4366642880402,294.182016913758L1392.6842250879668,294.27777166684484L1393.5197427877197,294.18407191115443L1394.1386447875366,294.26852685993873L1395.9953507869873,294.3592116571994L1397.9758371864013,294.3931668056515L1398.006782286392,294.4838145939754L1398.5947391862182,294.5746640571639L1399.8634882858428,294.6764778719337L1399.8944333858337,294.74726574570445L1400.2967196857146,294.82611621357756L1401.410743285385,294.8996755992838L1402.6794923850096,295.00603711023837L1402.8651629849548,295.09904876874316L1403.9791865846253,294.4633029032584L1405.4645513841858,294.55996951664974L1408.7447319832154,294.64848148094603L1409.3017437830506,294.73547818193816L1410.9418340825653,294.8332915514535L1411.6845164823455,294.8876530191152L1417.1308540807343,294.9631072932869L1417.378414880661,294.9278261905758L1418.8637796802216,295.002029400708L1419.9159130799103,295.03526242628834L1421.0918268795622,295.12133492120813L1421.74167397937,295.1871186690958L1423.9387760787201,295.23932204469713L1424.8671290784453,295.30706327845L1425.7026467781982,294.76843871862775L1425.7954820781708,294.8425189468827L1425.9192624781342,294.875411017088L1427.6212429776306,293.7746556445828L1427.6521880776215,293.8242974367967L1431.6750510764311,293.89542745508385L1432.5415138761748,293.98674047650854L1434.119713975708,293.4698193822297L1435.109957175415,293.51977500811716L1438.1735220745086,293.62284795193693L1439.7517221740416,293.71194439179163L1439.9373927739866,293.821645752572L1440.1230633739317,293.90527116530126L1440.2777888738863,293.9870250757458L1441.0514163736573,294.07266849597966L1441.268032073593,294.1703330812285L1441.7322085734556,294.2595461435006L1441.7940987734373,294.3504663047664L1442.4130007732545,294.4418759578044L1443.7745851728514,294.50997275589367L1444.2078165727235,294.5473862193695L1447.426106971771,294.1776988274232L1451.7584209704896,294.22841561484944L1452.7796092701874,294.2985907592192L1453.24378577005,294.3960897395971L1453.491346569977,294.4404868529422L1454.852930969574,294.3131409704039L1456.059789869217,294.39983627488954L1456.0907349692077,292.6193337330926L1457.2666487688598,292.68775380880646L1458.1331115686035,292.78958433799403L1458.442562568512,292.87697083943596L1458.5353978684843,292.5694961412219L1465.776551266342,292.6432866860326L1465.8693865663147,292.72244095501105L1467.787982765747,292.2155786656513L1468.7472808654632,292.2643414823255L1471.0372182647857,292.3451949480475L1476.1122146632842,292.40250043860493L1476.7930068630828,291.61833823005156L1478.2474265626527,291.06663779560853L1480.6611443619383,291.15781528510524L1480.939650261856,291.1736439328197L1481.1562659617919,291.2082461417113L1481.3728816617277,291.28547302675014L1481.929893461563,291.3691558444743L1482.332179761444,291.39551481205234L1483.9103798609772,291.49245987713476L1484.5911720607758,291.58682850414334L1489.697113559265,291.690343352466L1491.1824783588256,291.6460383774039L1491.3990940587616,291.69426906987906L1492.5750078584135,291.7813614715532L1492.6678431583862,291.87008748720416L1494.5864393578186,291.96361095159983L1497.0620473570862,292.00948147707044L1500.6516789560242,292.1085918306889L1501.0230201559143,292.11434983258675L1502.5702751554566,292.0332053469767L1503.6842987551267,291.87508972233974L1504.3341458549346,291.5563405659868L1508.9140206535797,291.32255665209647L1509.4710324534149,291.0449804485649L1512.6583777524718,290.7474780323599L1513.648620952179,290.7633499786168L1521.01355475,290.86948166684596L1521.9419077497253,290.96289038941586L1524.2627902490385,290.96476770094205L1524.3556255490112,291.001111687432L1525.1292530487824,291.0873009237254L1527.171629648178,291.19572423196047L1527.6048610480498,291.2893097970413L1529.152116047592,291.37501388981565L1529.8947984473723,291.447652803139L1530.6993710471343,291.49060379858884L1530.977876947052,291.06580929744706L1531.2563828469695,291.15044416547454L1531.3492181469421,291.25056356204806L1532.5251319465942,290.9933095318997L1535.6815321456602,291.0892660036374L1536.8883910453033,291.0712689796016L1538.3737558448638,291.0871194745065L1538.7760421447447,291.13884365079866L1538.9617127446897,291.2154424537392L1538.9926578446807,291.31230774871574L1539.6734500444793,291.3417977925434L1539.921010844406,291.42970243935855L1541.5920462439117,291.4532594146973L1545.7696347426756,291.45466916758613L1546.5742073424376,291.541106958022L1547.7501211420897,290.41973696797544L1548.7094192418058,289.74296382104666L1549.328321241623,289.5837064064905L1550.101948741394,289.6514983445104L1551.7729841408996,289.4748832131801L1553.5368548403778,289.53432103455725L1554.9603294399567,287.266839639693L1559.230753238693,287.3381955692701L1560.5304474383088,287.4034343590694L1563.7177927373655,287.1725530925853L1564.9865418369902,287.2182134613782L1565.3269379368894,287.2289260524674L1565.9458399367065,287.2990771524514L1566.06962033667,287.3944232516239L1566.44096153656,286.68993180076717L1568.4523930359649,286.78815132306744L1570.7423304352874,286.38326069271494L1572.1658050348663,286.2945662660129L1577.1170210334014,286.2713321750454L1577.4883622332916,286.34644079819475L1578.2929348330536,286.3956795169891L1586.740947130554,286.4331024638669L1591.9087788290253,286.51990837182325L1593.4869789285583,286.602854765218L1593.8583201284484,286.6760976484521L1597.138500727478,286.77467294652024L1600.6043519264526,286.86330983306937L1605.308007125061,286.62965700038626L1605.8031287249146,286.7252164585164L1606.3910856247405,285.6921190720481L1606.4220307247313,285.72278673333125L1609.5784309237974,285.80466874375867L1609.7331564237518,285.7825393411609L1610.1973329236143,285.60942467829744L1610.290168223587,285.63962018521823L1610.6305643234864,285.64564922929407L1611.1566310233306,285.75664785841406L1611.280411423294,285.78687929756876L1611.7755330231475,285.8835482382162L1612.23970952301,285.7980458527901L1612.6729409228822,285.903201023789L1613.9107449225157,285.78656279295046L1614.1273606224515,285.83690937250185L1614.715317522278,285.9298999699787L1618.3668393211974,286.02274374209117L1618.6144001211242,286.0805713512435L1618.6762903211059,286.1072787440059L1619.233302120941,286.14075762823956L1619.9759845207216,286.2250227716423L1623.410890619705,286.0935625685129L1626.1031143189086,286.1671906551308L1628.1145458183137,286.2622293107093L1628.5477772181853,286.3253424947154L1631.0852754174346,286.3991622444622L1633.251432416794,286.3759933215569L1637.3052405155945,286.3047187103944L1638.4502092152557,286.3543579119888L1640.1212446147613,286.3417961586203L1643.8965468136444,286.1492949035258L1646.0008136130216,286.240080229056L1646.2793195129395,286.3198525916338L1646.4959352128753,286.38915029047445L1647.7956294124906,285.45522315195353L1647.950354912445,285.4758373780847L1650.921084511566,285.30723772305424L1651.8803826112824,285.3841629035562L1652.0660532112274,285.43861172116516L1653.2729121108703,285.31656231453985L1655.934190710083,285.3603595236904L1659.0905909091491,285.4477859897348L1659.8023282089387,285.5215681984767L1659.926108608902,285.4181458122577L1660.7925714086455,285.4378696838368L1661.6280891083984,285.1734426733368L1661.68997930838,285.18669335996674L1662.3398264081877,285.155450344476L1663.0515637079773,285.24427246277577L1666.2389090070342,285.33471498640836L1673.9751840047454,285.37885789468254L1674.3465252046356,285.04277807934926L1674.9344821044617,285.0048166324516L1676.2032312040863,284.8537687224668L1677.3172548037567,284.56488822327344L1679.3905765031432,284.564379094049L1680.814051102722,284.6552247289434L1681.618623702484,284.73158930642364L1682.2684708022919,284.335228905887L1686.043773001175,284.394422134103L1687.4053574007721,284.4702020547336L1692.4803537992705,284.55802407508224L1692.8207498991699,284.6625119768387L1694.3680048987121,284.6758150099863L1697.4934599977873,283.8385006484754L1697.8338560976867,283.9296735011113L1700.8355307967986,283.4985607085689L1701.2687621966704,283.31302039376453L1701.7019935965423,282.35528880543967L1701.949554396469,282.41469305577124" fill="none"></path></g></g></g></g><g opacity="0.2"><g><g><g><path style="fill: none;" stroke="rgb(0, 153, 136)" stroke-width="2px" d="M162.74028085185242,-424.89475929653236L167.16543015054322,43.83627659962971L169.11497144996642,-351.4241276501459L170.50750094955444,-74.09498166308933L171.37396374929807,81.63464953596753L171.9309755491333,-827.3584982294815L181.52395654629515,-114.58986545370227L182.14285854611205,99.90512995475251L186.13477644493102,-30.897004168319388L189.75535314385985,-52.68413076532804L190.7455963435669,5.402965849353148L191.11693754345703,-411.55246361330626L191.3644983433838,96.35036176143518L193.4687651427612,-565.0195839365217L194.05672204258727,-57.68610193378502L197.30595754162596,120.36372041715859L198.5747066412506,-56.233808221403436L199.84345574087524,-43.0496764780056L200.95747934054566,249.51173065047098L201.45260094039915,190.449333625848L201.54543624037169,131.80253385710012L202.62851474005126,3.6409271071969105L203.15458143989562,19.814404124725762L206.4038169389343,175.90805229369442L214.7589939364624,41.45179282975494L215.3778959362793,23.748051900132594L215.40884103627013,-34.79097930177152L227.72499083262633,-43.26214161508154L230.1077635319214,158.22536185513877L230.2624890318756,226.27166668464778L230.91233613168333,37.26986921391479L231.00517143165587,180.0171842183965L232.18108523130797,183.49464049699012L234.47102263063047,229.41889795605655L236.26583843009948,287.60432771941754L236.5133992300262,-354.961312320001L237.78214832965085,53.79390493048585L238.06065422956848,242.6107096909832L238.52483072943116,-189.4590455003237L238.80333662934873,219.82812453483905L240.38153672888183,235.34280456474625L240.9076034287262,245.44804964706438L242.73336432818604,-23.70402650229334L246.72528222700498,201.26883254890373L250.12924322599793,314.59533611931516L250.77909032580567,172.41882002808993L250.81003542579649,-15.650070585940558L253.71887482493588,-37.02748060630198L254.2758866247711,317.0227254418644L255.01856902455137,266.81668253425L255.76125142433168,223.68557216572447L255.8540867243042,238.99422362288462L258.57725552349854,297.5374897915461L260.0626203230591,275.6367797769647L262.5072832223358,238.22318173049948L263.03334992218015,96.92116798896929L263.8379225219421,228.2515246151173L265.0757265215759,254.31998317545992L266.12785992126464,297.18685063544973L266.62298152111816,79.49393601149585L267.7988953207702,230.2048609748405L268.23212672064204,302.28277370027615L268.3249620206146,278.97923643303653L269.5937111202392,260.16357901559087L271.75986811959837,252.6610976909525L273.80224471899413,200.8115000247777L275.87556641838074,230.42986278380263L278.87724111749264,311.3094407722838L279.217637217392,195.93531980328552L281.8789158166046,255.27294578146916L282.25025701649474,-98.85612280828197L284.10696301594544,47.597570736574056L284.44735911584473,311.7451815487973L285.53043761552425,309.48948026544474L288.34644171469114,167.2039594944535L288.6558927145996,-211.94173064440545L295.18530881266787,224.3799896854847L295.95893631243894,254.3192517476953L298.58926981166076,295.58197377708416L299.8580189112854,300.342720068759L304.2522231099853,307.1572496950767L304.3760035099487,324.56143804082484L305.7994781095276,292.45906247885006L311.895662807724,268.641733778331L312.17416870764157,-124.67976518151805L312.23605890762326,313.22661534332263L313.53575310723875,265.5898221732116L313.6595335072021,289.1562272647894L314.2474904070282,316.20994828122826L315.2377336067352,277.3364862450173L315.6400199066162,82.7836932971246L316.4136474063873,258.58665732639025L317.5586161060486,315.9684893475615L318.5798044057465,306.0298196243651L320.653126105133,263.988587825114L321.92187520475767,281.3151899707267L323.50007530429076,250.1461418364192L330.0913816023407,85.00021199512474L332.9073857015075,310.35484708235936L335.19732310083003,338.2526649963168L336.2494565005188,237.91002824734156L336.65174280039975,304.8183923891609L339.0345154996948,185.1562980927256L339.80814299946593,122.0784211543866L340.30326459931945,12.682427534271655L342.03619019880676,293.85744996497687L343.83100599827577,271.7553632582316L344.6665236980286,-142.65076981634408L344.79030409799196,318.5041519221121L347.35874739723204,339.11053102150487L347.91575919706725,-28.991634841402025L349.02978279673766,315.87207985390273L350.6698730962524,292.38483718929325L350.73176329623413,262.78566709481265L351.47444569601436,112.76295714378398L351.5053907960052,280.94058924106037L351.6601162959595,346.40359360570704L351.8148417959137,339.82012201024276L357.44684999424743,336.8075685331393L358.00386179408264,278.94224813097816L358.49898339393616,342.2172338804742L358.6537088938903,314.61936352138395L358.932214793808,318.3958640415554L362.9860228926086,227.84296369433824L363.6049248924255,310.04956376194906L365.21407009194945,347.7106458782924L366.45187409158325,325.433537650313L366.69943489151,346.74671734152156L368.83464679087825,242.39471907208156L371.0626939902191,116.06868881179273L371.2174194901733,249.75042478718737L371.279309690155,130.14051054748228L373.0122352896423,332.86417448276853L376.4161962886352,339.04738686258247L377.74683558824154,339.64856197090495L379.1703101878204,319.7841541673912L380.8722906873169,323.71758982874627L382.2648201869049,332.95224569991024L384.833263486145,347.86189051146704L385.69972628588863,281.74552549605943L385.82350668585207,340.95607687155143L385.88539688583376,282.97124482978495L386.9994204855041,347.81644873301866L388.14438918516544,338.8809907032631L389.6916441847076,325.4775476589121L390.0320402846069,217.18667556268687L391.2698442842407,333.29492692192713L393.83828758348085,177.58894643964027L393.9311228834534,336.0310409325193L394.73569548321535,336.66222652202543L395.9116092828674,336.9694737259838L396.7471269826202,209.6592891226621L397.79926038230894,334.1668107602248L399.03706438194274,346.89170461016965L401.85306848110963,317.6105081078161L406.0616020798645,320.73193826482674L411.2913239783172,352.4578918420012L414.5715045773468,351.36909212867965L419.2442146759643,289.69176404551195L419.4298852759094,343.2409072656312L421.4103716753235,335.9635996354796L422.6791207749481,346.71606320390504L423.7621992746277,238.4898602934914L424.690552274353,294.5659913548725L425.5570150740966,353.3488037735962L426.29969747387696,344.4974416510815L426.3615876738586,354.96019948191423L427.7541171734466,323.57227707474294L428.0635681733551,350.43147670574217L429.2085368730163,307.25541461537057L429.42515257295224,325.6984095867263L435.0262156712952,337.37152128251864L436.97575697071835,313.6058021250733L437.93505507043454,327.6380170473071L441.02956506951904,310.32079911991485L442.236423969162,331.94871583539174L442.60776516905213,350.95891109540185L443.35044756883235,341.8607835307878L444.34069076853945,293.48583346059036L449.8798636669006,333.9286286229436L450.15836956681824,348.0777330162463L453.99556196568295,353.1970562838334L455.2643110653076,102.5835014004643L456.53306016493224,342.3623674346752L456.5640052649231,338.8124156931882L457.1210170647583,333.6529278984747L459.13244856416316,315.42453383326773L460.0608015638885,358.80690426750635L460.8963192636413,340.56588575908154L461.6080565634308,345.02341501378123L462.567354663147,348.6794054954487L462.59829976313785,283.7932160374228L462.9386958630371,350.4486835439056L463.34098216291807,355.06687822138866L463.52665276286314,351.1731261734048L463.95988416273497,334.67130208947674L466.1260411620941,331.8517760566037L466.9615588618469,357.5267575652437L467.9208569615631,267.19680554353937L468.4469236614075,342.49897619827925L470.0870139609222,327.5884993876401L470.61308066076657,352.3066014945912L470.8296963607025,359.5368326052404L474.75972405953974,316.213367706028L474.85255935951227,262.5232015557451L474.8835044595031,342.43772278012847L476.3998143590545,349.520196339471L477.9470693585968,348.75725135244056L478.34935565847775,342.55407099465157L479.67999495808414,344.07483000294343L480.20606165792844,340.4954053796797L481.53670095753483,307.0771364120144L484.074199156784,282.51745973031746L484.1360893567657,298.0807138780752L486.0546855561981,359.0876792720926L486.3641365561066,337.5289062517775L486.58075225604244,338.4159672161917L495.833337153305,326.62742524772085L495.98806265325925,333.3540226281721L496.235623453186,331.97581157693327L496.7926352530212,361.07295891086756L498.030439252655,354.7017238813028L498.7731216524353,355.0453541308444L498.95879225238036,360.6795550019415L501.68196105157466,349.6541500202893L501.86763165151973,277.2968721172838L505.3644279504852,344.27448052558276L507.31396924990844,24.875942770335946L507.7781457497711,289.0060505161511L508.83027914945984,358.0179259377625L519.4444484463196,288.4287345815116L520.4656367460174,358.77697790051565L521.332099545761,339.4094728631956L521.951001545578,342.5677779509612L525.2002370446166,340.5555433704894L526.9022175441131,334.8113375921581L528.4185274436645,333.317608496909L531.4820923427582,339.96974653091877L531.6058727427215,340.7330718603868L533.3387983422089,330.34747051587766L535.4121200415955,363.531454027678L535.8453514414673,357.25171878290183L537.0212652411194,345.3929030633726L538.3828496407165,328.80697027221794L538.4447398406982,293.5842397520465L539.5897085403595,353.00144507102436L540.7965674400024,352.99788301781047L540.9203478399658,344.44333793933015L543.2102852392883,273.2343248269124L544.664704938858,332.3980794540219L547.9758306378784,-496.52658154258455L553.9482349361115,325.8258133319122L554.0720153360749,358.27687330928217L555.2788742357177,310.7240864465108L556.1453370354614,354.84195686948067L556.2691174354247,335.16690657138815L562.8294786334839,285.59377176566556L566.4191102324219,358.4719066941571L567.8116397320099,307.3504343962765L569.0184986316528,357.2161805363868L569.9468516313782,347.5056979900676L571.0918203310393,346.4869708851691L573.165142030426,336.76911737555156L574.0316048301696,341.95078571722814L574.2791656300965,241.42251991586195L576.2905971295013,353.97415074097097L576.8785540293273,352.053181888403L577.0332795292817,337.06628184777423L581.8297700278625,344.06664166911816L583.2841897274322,357.6933914385866L587.0594919263152,358.85632318442504L587.3379978262329,361.2184892646309L588.1425704259948,336.7366529542175L589.3803744256287,277.7927581988846L593.4341825244293,348.72902372643324L593.7745786243286,359.4082823470335L594.3315904241638,365.1764707274829L595.9407356236877,351.8707857467318L596.1573513236236,354.90171268928333L598.9114652228088,330.7203926188241L599.1280809227447,359.5720764520801L600.4896653223419,349.4439413378672L600.9228967222137,359.05217211125756L604.5125283211518,338.3083778491503L605.8122225207671,353.63342060251625L607.235697120346,357.32533333027516L607.9164893201447,343.5918865356381L611.0109993192291,359.8311865662774L613.3009367185516,347.30283467097206L614.2911799182586,347.26296271495147L614.6934662181396,357.4163778012802L614.817246618103,333.0509409053335L616.5811173175812,357.63153093539125L617.0452938174437,299.3591618393544L619.4899567167206,350.5477005775453L620.9134313162994,282.553804375943L620.9443764162903,345.9483419935714L621.0681568162537,327.40331650618566L622.3059608158874,283.353920521973L622.7391922157592,349.22371026650006L623.1724236156311,361.03486615288455L623.6366001154937,336.692694145562L624.6268433152007,352.4204390833122L625.0600747150726,361.4788757202774L629.2376632138366,324.3191306509511L630.1041260135803,357.3644318014346L630.3826319134979,351.73560143869946L631.8989418130493,361.55070375533563L633.0439105127105,329.4806408434338L634.0960439123993,327.5066599350533L637.8094559113007,358.9320405866218L638.6759187110442,352.7026019720818L640.9658561103668,355.56253573181306L642.4512209099273,356.5154800521282L643.4724092096253,320.1825226422699L644.307926909378,354.57302368040416L645.9480172088928,349.03074133649085L647.4643271084442,333.43940219113995L650.868288107437,343.54257001860645L652.2298725070343,353.38538979038407L653.4986216066588,348.2267467947388L655.6028884060364,368.26197406697867L655.6338335060273,362.2459523598934L657.3358140055236,363.97798062086605L659.5638612048645,155.05238432641428L660.5850495045623,367.95127086683226L662.0085241041412,349.6505001957437L662.5964810039673,359.1866048772617L663.0916026038208,354.90543199946654L672.4989130010376,361.2196248062355L672.622693401001,346.7456366569993L675.6862583000946,355.4030003649261L676.6765014998016,362.4496559066336L677.1097328996735,358.3865216454811L677.202568199646,361.03816123496426L677.9452505994262,344.12649440309957L679.18305459906,324.9103693130907L683.174972497879,363.51872535600364L684.5365568974761,360.9660900001743L684.7222274974213,357.67118346308246L684.7531725974121,363.77079913510494L688.9617061961669,311.80266445682133L689.2711571960755,358.73309772034474L693.0155142949677,362.8620220803583L694.1604829946289,360.730114946173L698.2452361934204,333.4640513068087L700.3804480927886,349.75257094030076L702.1133736922759,357.2170692211208L702.3918795921936,345.92888235789286L703.4440129918823,334.94270201868954L704.5889816915436,358.993624975836L708.0857779905091,-1046.4758830536498L709.7568133900146,308.6020755299812L711.9229703893737,355.86024146058156L715.5126019883118,336.24397052622584L715.7601627882385,348.4000659178506L715.8839431882019,343.78575877893667L716.0077235881653,338.80423833077936L718.1738805875243,348.34581043483814L720.3090924868927,356.15352936565154L722.04201808638,347.17181950119823L724.3010103857116,295.80747295692623L725.0436927854919,344.97383152561554L726.2505516851348,327.56657118325586L726.6528379850158,337.8761552401847L726.9313438849334,350.73130906073635L727.9215870846405,360.66854884265285L730.8304264837799,348.8677810590959L731.3874382836151,347.9259654122199L735.2555757824707,362.7339381073513L735.4412463824158,349.49781099273383L735.5340816823883,362.98671314282194L735.9054228822783,365.89618467648364L736.3695993821411,318.8746383706022L739.7426152811431,335.5694405273866L742.4348389803466,342.2158002820555L746.0863607792663,339.71451481244355L746.2101411792297,354.76977957766485L749.1808707783508,338.58919125369414L751.3160826777191,337.55098439885353L752.5848317773437,354.45755866490686L754.3796475768127,359.34010596509034L755.2770554765472,354.39226959406466L755.7102868764191,358.18663706595714L758.1240046757049,367.5706815723429L758.2168399756774,355.26476051740696L759.6093694752655,358.99230840585966L761.8064715746154,355.03135277485956L762.9514402742767,353.31903649214433L768.7381739725646,361.30626973923614L769.3570759723815,359.7719244602159L770.4092093720702,359.5488005920395L770.9043309719239,361.5206548741943L771.244727071823,355.96218420527987L773.1014330712737,337.1855886876054L773.2252134712371,313.33416448183704L773.6274997711182,361.8382910952649L774.0916762709808,357.2712351042321L783.2823709682617,347.68200499559805L784.8605710677948,336.54044379921095L785.8508142675018,364.8482260609709L786.1293201674195,313.1348065303036L786.7172770672455,349.6469491139463L787.2742888670806,366.10767427177854L788.9143791665954,358.8118340906401L791.5447126658172,351.58406789155777L791.6375479657897,354.7095410155376L792.782516665451,354.10568522445766L793.6489794651947,359.25690605686117L794.2059912650299,280.1215949444247L794.2678814650116,328.0198845118151L797.176720864151,360.3605720394993L799.6832739634094,349.6339552997072L802.963454562439,344.55347267499263L803.0872349624022,360.76877273210425L803.6133016622467,338.77781184564253L803.768027162201,341.9137206152544L803.9536977621459,328.30058454505553L804.6035448619538,344.6327192161538L805.7175684616241,357.5072540438993L806.2126900614776,355.8433162221075L808.5954627607726,362.917202819493L811.8137531598205,333.77068776858357L812.8658865595092,339.4402732863651L814.2274709591064,361.0017233322987L816.6721338583832,364.5220357921927L817.5695417581177,359.0169209501402L822.6135930566253,348.6926772522383L822.9539891565246,348.2516281387228L823.1087146564789,367.0164531550946L823.8204519562682,357.2835322335253L825.5224324557647,365.7366749095685L825.5843226557464,338.10570652984296L829.7309660545196,347.4765505936462L830.7521543542175,341.2038589982436L837.4981861522217,364.51741682585896L838.240868552002,361.16744474950525L840.0666294514618,354.7248900271788L840.5617510513152,348.3147302405487L842.6350727507019,365.95494575452636L844.3679983501892,359.7498792273893L845.0487905499878,361.8192584305439L847.2458926493377,351.7854665265546L847.3077828493194,311.39996227243705L848.4527515489807,361.2138757840053L857.2721050463714,356.5467376176506L858.943140445877,358.8157399149033L859.7167679456481,286.5506548244934L864.0490819443664,360.36346117916963L868.6908469429931,355.6942951293374L869.4025842427826,350.7993354999878L869.7739254426726,363.1917853737667L875.7153846409149,354.89107224387703L876.7056278406219,369.63652020797423L879.0574554399261,353.8522619611306L879.088400539917,358.5181658431325L881.9662948390654,332.7426806739211L884.7204087382506,367.2418846778685L884.7822989382323,365.8756882419487L886.4533343377379,352.2222057019669L886.5461696377105,357.2337750312655L899.6359469338378,357.54510177358117L909.167037731018,358.49191855779793L911.9830418301849,345.9377472624005L912.1068222301483,-185.9626452426256L912.6947791299743,357.68266870755684L916.2225205289307,345.76796093539184L919.2551403280333,355.6050225420923L919.6883717279053,191.4916767046977L920.926175727539,361.0100579516769L923.0923327268981,320.91008115404645L923.5565092267608,357.7100661630513L924.5467524264678,360.3889477796289L924.7633681264037,345.044319219295L926.4962937258911,351.5087820317422L927.115195725708,360.6245534626091L927.1770859256897,346.0214847700366L928.1363840254058,352.419438855844L930.0549802248382,362.5357275831237L931.8807411242981,309.37158873833823L934.2016236236113,354.6574176444591L936.1202198230437,316.54257237148124L940.7310397216797,346.2653610724655L942.1545143212584,353.01384094306576L942.866251621048,357.4071855828479L948.4982598193817,353.30267628161846L950.1692952188873,355.6391564472992L950.4787462187958,357.37734881575835L950.5406364187775,355.56363470202945L951.840330618393,356.24659989156464L953.604201317871,335.90157456103714L956.4820956170196,356.89368489210483L956.791546616928,358.1409045449723L957.1628878168182,354.6103191821237L962.3616646152801,350.38557047066325L962.6401705151976,333.3214338641181L962.8877313151244,361.1525016802734L963.1352921150514,341.33593290970674L964.0945902147674,354.86468050155895L967.4985512137604,354.3816163486725L968.3340689135131,364.01975886049826L968.7363552133942,354.6294259039058L968.7982454133759,359.5850794091662L971.0262926127167,300.70297749996047L972.3878770123139,357.57388345612026L976.3797949111329,351.5974950767474L977.524763610794,364.51135968968293L977.6794891107481,350.95636572678086L979.3505245102538,339.4534792146559L980.8049442098236,352.95507072217606L982.6616502092743,360.8250707271495L984.5802464087067,349.3118509692794L984.6111915086975,358.71378985592736L987.6438113078003,354.5949975990237L989.3767369072876,359.7304122774331L990.7383213068847,352.7826201695347L991.2024978067475,353.6091006293416L992.1308508064727,359.9099704793774L993.5233803060607,333.2647664980517L994.1113372058868,362.49839825287L994.637403905731,361.364271960973L999.836180704193,352.6383844429148L1001.6619416036528,354.7344205309522L1003.9828241029662,340.2166290014604L1004.0756594029388,259.2019489905705L1004.3541653028565,358.7952288518131L1006.4274870022431,-564.8811978034496L1006.9226086020965,353.4116059900386L1009.6767225012816,342.33738917651243L1010.4503500010528,354.4882877738693L1014.8136090997618,358.54160078871195L1015.8347973994598,359.1599370209625L1016.0823581993866,346.5849346628277L1017.9700092988281,345.3933053486432L1021.4358604978028,347.07407880900786L1022.6427193974456,359.42510152848166L1024.4065900969238,312.6674461315242L1027.5320451959992,300.4201563262027L1028.1200020958252,351.7763602508847L1032.4832611945344,352.0597117097719L1035.2373750937195,346.3823291720192L1035.4849358936463,355.892800967525L1037.1869163931426,304.72612277665013L1039.3530733925018,349.8195861806676L1040.281426392227,350.0325212600824L1040.6837126921082,358.64378307600316L1045.7587090906068,340.8819174104934L1045.8205992905885,346.42673780875003L1047.6773052900392,360.6967270972861L1048.5437680897826,350.1192301930124L1051.3288270889589,338.28037879431946L1051.3907172889406,349.12167426476174L1051.7001682888488,304.92497604302594L1055.877756787613,295.9352607016885L1056.0943724875488,350.57110809458356L1060.210070786331,342.86397328139566L1061.7882708858642,344.5378566922173L1063.1189101854704,312.9048968410407L1064.6971102850036,316.0812681945931L1065.5326279847563,304.0202584123731L1067.3583888842163,348.592471648481L1069.6792713835298,353.09630393782203L1071.381251883026,350.28096715747097L1071.8763734828797,314.430113901558L1072.9594519825591,355.41653726428035L1073.1451225825042,338.75214604538087L1076.4562482815245,351.5000012414276L1076.6728639814605,361.06694840321154L1077.198930681305,359.32244381314337L1077.9106679810943,351.77032780039576L1078.4367346809386,317.7532791503372L1079.2413072807008,339.9858123417693L1081.9954211798859,354.562215006612L1082.335817279785,357.57040551709935L1083.1094447795563,337.5632284996338L1084.8423703790436,355.5686120679679L1085.2137115789337,343.2601694158133L1085.6159978788146,353.5782160919792L1089.329409877716,335.71020380069376L1090.6600491773224,350.4389226403863L1091.0004452772216,330.6093545698724L1091.0623354772033,323.33630019217225L1091.1861158771667,339.12952254341405L1092.4239198768005,351.8379940114731L1093.4451081764983,306.7749031453827L1093.9402297763518,292.993165661154L1102.1406812739258,352.4209766827192L1104.49250887323,346.7180270874531L1104.8947951731109,350.89414316684196L1106.3801599726714,344.5218896241149L1110.7434190713805,135.06285848947925L1111.5789367711334,326.2806297445278L1112.3525642709044,354.1956325538157L1112.631070170822,347.3161283705946L1112.8167407707672,351.91218090107225L1113.064301570694,349.1910209311284L1114.2711604703368,-1112.7641866222632L1117.7370116693114,-402.0168105884329L1120.61490596846,347.26759630984054L1121.6360942681579,356.2728727768709L1123.802251267517,321.6056653010913L1125.7208474669494,336.9579683672458L1126.7729808666381,325.5888161076097L1128.5987417660979,341.42682743802L1132.8691655648345,356.6266643866329L1133.5499577646333,357.29608536253613L1134.5092558643494,353.62060415951015L1135.6232794640198,323.1357719562153L1135.7470598639832,357.420033111534L1135.99462066391,351.24574232187933L1137.944161963333,348.21367435201506L1138.0369972633057,344.0107752164541L1141.2862327623443,347.89258670618L1141.9979700621336,352.0111741633096L1142.4930916619871,346.5261552990909L1142.9263230618592,346.60330629970633L1143.5761701616668,288.97947774546134L1144.2879074614561,187.32970643827724L1144.8449192612916,348.99898274294964L1145.4638212611083,340.4167951806738L1150.3840921596527,358.5186394426101L1151.4671706593322,334.41383585918055L1152.890645258911,332.82683509538305L1160.7197555565947,-562.6546146594079L1161.1529869564665,345.8145784839719L1162.638351756027,344.73630767332253L1164.092771455597,356.9091052179531L1168.1156344544067,-325.67079011364814L1170.1270659538116,357.55244165119944L1170.1580110538025,341.212376474563L1170.5293522536924,345.59346787071775L1170.5602973536834,320.866638001965L1172.9430700529786,347.02654331858315L1174.9235564523926,348.1896122071274L1175.5424584522093,330.2967752575097L1176.3470310519713,333.9014085386821L1181.7005333503876,337.9290338104302L1182.9383373500214,341.8298551077595L1184.609372749527,336.7422739765889L1188.1371141484833,348.90966261289987L1188.6012906483459,324.4636863772179L1188.7560161483002,-77.36759428191468L1189.158302448181,337.2514501006734L1189.6224789480439,338.5327433159572L1197.6682049456633,354.23330474083406L1197.91576574559,224.35969987929323L1199.1845148452148,346.2177122107373L1200.8246051447297,351.1720619460072L1201.6601228444824,358.8582395251684L1202.557530744217,348.1209805114007L1202.7122562441712,341.31634527416935L1202.7741464441528,127.40418076569954L1203.3930484439697,324.4112576350477L1207.5706369427337,346.4494175551624L1209.6749037421112,263.4285262714426L1210.2319155419464,349.2081655979318L1213.0169745411224,352.2156045663909L1215.461637440399,304.41648746104016L1215.6163629403532,343.2181562050117L1218.1848062395934,361.3277353155592L1221.2793162386781,315.1602836104544L1221.6197123385773,-115.05657488177123L1222.3623947383576,331.8332526484638L1226.1995871372221,358.2583809868224L1227.5921166368103,228.77859146232524L1229.8511089361418,355.35269459184275L1232.017265935501,356.74645214021933L1234.0596425348967,355.6710265835744L1235.0498857346038,351.3096691085099L1235.7306779344024,350.75712480368975L1235.9472936343382,334.3802706390607L1236.2257995342559,354.8782046009274L1236.2876897342378,351.2231686324928L1236.3495799342195,353.2730187143312L1236.8447015340728,346.93169725177137L1238.4847918335877,348.295647290169L1239.2893644333496,345.0406035662506L1240.186772333084,354.48157143842036L1241.3936312327269,356.9094819032519L1242.198203832489,343.67957009606454L1243.2193921321868,356.05119347852974L1244.580976531784,346.2180267246761L1249.5321925303192,339.1521163470641L1251.5436240297242,362.6296465652438L1252.2244162295226,353.7847438641756L1252.6267025294035,351.3076832821289L1254.143012428955,356.407585313995L1254.916639928726,359.3131126234358L1255.7831027284699,324.669777121325L1256.0616086283874,347.96270137169955L1257.5160283279572,361.9300011655357L1259.6512402273254,358.6333840017592L1261.507946226776,335.61184870918106L1264.1382797259978,313.0402548631671L1264.911907225769,340.3971380594988L1266.1187661254119,354.9746049517391L1267.2018446250916,347.4347238969246L1268.8109898246155,355.6397873037462L1269.0585506245422,334.9422595048919L1273.2051940233152,354.4003408994476L1274.5667784229126,362.3573094942075L1276.9186060222166,359.9236829213952L1277.1971119221344,358.5155290460409L1284.3144849200287,356.37705734766786L1285.1500026197816,355.17122370629386L1287.2542694191588,-667.5343929181263L1287.7493910190124,327.1394466258099L1288.3373479188383,353.20748461518787L1290.039328418335,362.0734195216286L1290.2868892182616,346.87758988288124L1291.400912817932,337.12199104346894L1295.5475562167053,342.1605189716032L1296.2283484165039,363.2628298668321L1296.2902386164856,355.0627511402266L1296.3830739164582,357.4252079629689L1296.7544151163484,361.65271232853274L1297.18764651622,360.49895817257135L1297.8065485160369,358.39873100344255L1297.961274015991,-640.0853717662814L1298.0541093159638,335.0670118244309L1299.6323094154966,347.156843517717L1301.7675213148652,352.5915090660477L1302.2007527147368,339.52804096098447L1303.345721414398,326.1514559441515L1305.0786470138853,353.0414559983202L1305.3880980137938,351.6820005835364L1306.0688902135926,344.1042736276095L1311.1129415121002,356.93829284290155L1315.166749610901,343.11960362800255L1316.0022673106537,337.84509150301994L1316.0641575106354,335.5818235994421L1317.518577210205,323.50249886599516L1318.6635459098663,336.3947104742429L1319.7775695095368,84.7757514427085L1320.6130872092897,352.84270696040085L1322.933969708603,361.3166029849812L1324.6050051081086,346.2948851541857L1324.7597306080627,306.53086958598436L1328.7516485068816,355.6003706615091L1330.113232906479,335.36584760909574L1336.1475274046936,361.24737151848757L1342.6459984027708,356.7186414280378L1342.6769435027618,299.163051427096L1343.1101749026336,355.40788447382454L1343.3267906025696,347.1903465664769L1345.7714535018463,352.73939644578263L1346.7307516015626,345.0938039647125L1348.1232811011505,342.52235262963745L1355.6119952989347,342.0321533989068L1356.6641286986237,348.0265495298454L1357.9328777982482,345.9253129904013L1358.4898895980834,345.97207316739554L1358.8302856979828,332.86475962498025L1362.4199172969206,349.7282655956814L1363.0388192967375,341.5387688002611L1364.1218977964172,331.18009862604646L1367.959090195282,351.4725196717402L1368.9802784949798,322.2203096516998L1369.0112235949705,251.65664257031176L1373.9933846934966,341.9585498229499L1375.6025298930206,340.69512173081785L1376.4071024927825,320.5114676508666L1378.697039892105,313.8475682584013L1379.8420085917662,347.92087284640854L1380.244294891647,350.3619032967685L1383.1531342907867,341.77397768367894L1383.679200990631,342.30561961155473L1383.9886519905394,355.1328018058167L1384.0814872905119,344.68409835948177L1386.7427658897248,348.1433548867214L1389.7134954888456,306.45576658310995L1391.0131896884611,-248.5261090340851L1392.4366642880402,337.67322792115976L1392.6842250879668,346.3219498100472L1393.5197427877197,243.2141375968208L1394.1386447875366,340.247985309731L1395.9953507869873,343.7715837088577L1397.9758371864013,312.910082663892L1398.006782286392,343.9583099028956L1398.5947391862182,344.20040517871763L1399.8634882858428,350.3374992094009L1399.8944333858337,333.47860306218644L1400.2967196857146,338.00450252718696L1401.410743285385,335.2138788624341L1402.6794923850096,353.3454008059212L1402.8651629849548,346.15791067669943L1403.9791865846253,-54.81627195639801L1405.4645513841858,347.7121891908758L1408.7447319832154,343.3566154808603L1409.3017437830506,342.6487982044516L1410.9418340825653,348.74772267723654L1411.6845164823455,324.8758715225709L1417.1308540807343,336.6208167391297L1417.378414880661,275.433640343888L1418.8637796802216,336.0353270992202L1419.9159130799103,313.427465407496L1421.0918268795622,342.79491552899606L1421.74167397937,331.6525095335408L1423.9387760787201,324.2000249537552L1424.8671290784453,332.9177479093904L1425.7026467781982,-4.5209290329972465L1425.7954820781708,336.03840275297057L1425.9192624781342,313.1812009934155L1427.6212429776306,-319.32802408125303L1427.6521880776215,321.4959035935888L1431.6750510764311,333.5765302684568L1432.5415138761748,344.96755953253364L1434.119713975708,4.640671833033261L1435.109957175415,321.4544243250554L1438.1735220745086,351.3054633988632L1439.7517221740416,343.6120483419707L1439.9373927739866,355.3100669817189L1440.1230633739317,340.81460045617365L1440.2777888738863,339.88235554159814L1441.0514163736573,342.1889861402034L1441.268032073593,349.0830969358846L1441.7322085734556,344.4593306074043L1441.7940987734373,345.55049648954446L1442.4130007732545,345.9573970692978L1443.7745851728514,332.91677511046345L1444.2078165727235,315.664968768064L1447.426106971771,85.35141435059987L1451.7584209704896,322.8989575888541L1452.7796092701874,333.9995076304772L1453.24378577005,349.59744791140406L1453.491346569977,319.59618088901453L1454.852930969574,222.1030696826796L1456.059789869217,343.59689681582597L1456.0907349692077,-718.5323453522514L1457.2666487688598,331.57317522104785L1458.1331115686035,350.70714085882287L1458.442562568512,342.61687869680225L1458.5353978684843,117.4244633163509L1465.776551266342,334.70785153487634L1465.8693865663147,337.87856895180806L1467.787982765747,2.842295759529133L1468.7472808654632,320.12444727775653L1471.0372182647857,338.57452246987407L1476.1122146632842,325.1923603163356L1476.7930068630828,-157.40928519459914L1478.2474265626527,-25.083762580421542L1480.6611443619383,343.44565949692895L1480.939650261856,300.2576842768406L1481.1562659617919,311.08111828127016L1481.3728816617277,335.67150761480485L1481.929893461563,339.50123047627113L1482.332179761444,306.56764577399105L1483.9103798609772,347.33475235005204L1484.5911720607758,345.9849572674699L1489.697113559265,351.40448774678055L1491.1824783588256,266.0693242728842L1491.3990940587616,319.5575907601515L1492.5750078584135,342.13214688861234L1492.6678431583862,343.2026572506787L1494.5864393578186,346.1110736997899L1497.0620473570862,318.58649605985653L1500.6516789560242,349.57392336592346L1501.0230201559143,295.4553197453571L1502.5702751554566,244.91669663315554L1503.6842987551267,199.99917634935562L1504.3341458549346,106.20822334519285L1508.9140206535797,155.2829157292772L1509.4710324534149,129.40668369976265L1512.6583777524718,117.38177719200581L1513.648620952179,300.0191291113995L1521.01355475,352.80466905950016L1521.9419077497253,345.5121513889826L1524.2627902490385,292.0618679455337L1524.3556255490112,312.25559378580414L1525.1292530487824,341.52769498390427L1527.171629648178,354.6929924623623L1527.6048610480498,346.135653329821L1529.152116047592,341.6377675482067L1529.8947984473723,334.0780556581231L1530.6993710471343,316.7154306951013L1530.977876947052,41.41200315935792L1531.2563828469695,340.9255799909042L1531.3492181469421,350.17353870453775L1532.5251319465942,139.48675303842148L1535.6815321456602,347.64098286941754L1536.8883910453033,280.45739343117623L1538.3737558448638,300.4415505883187L1538.7760421447447,321.6858663554853L1538.9617127446897,336.48409094708336L1538.9926578446807,348.5976464999159L1539.6734500444793,308.7939875468705L1539.921010844406,343.4874130508741L1541.5920462439117,305.4134381328156L1545.7696347426756,292.29068049314964L1546.5742073424376,342.8355170842119L1547.7501211420897,-375.48488282501876L1548.7094192418058,-112.42033367530333L1549.328321241623,194.88267822150954L1550.101948741394,329.9907934235842L1551.7729841408996,184.30948028392257L1553.5368548403778,324.9505320116477L1554.9603294399567,-1064.7331392584497L1559.230753238693,329.91335350900164L1560.5304474383088,326.3549940053599L1563.7177927373655,149.2294732634677L1564.9865418369902,314.5169416914998L1565.3269379368894,293.6379046071391L1565.9458399367065,329.29620401829925L1566.06962033667,344.5131271194944L1566.44096153656,-135.62941436101588L1568.4523930359649,345.706751402907L1570.7423304352874,43.34133405984527L1572.1658050348663,233.01898541367163L1577.1170210334014,272.30618687923544L1577.4883622332916,331.52132064967293L1578.2929348330536,316.03040470783924L1586.740947130554,308.9712710084668L1591.9087788290253,338.8336673268901L1593.4869789285583,336.6235449646918L1593.8583201284484,330.8741021635657L1597.138500727478,346.2983722360537L1600.6043519264526,340.420825347657L1605.308007125061,145.35618290719992L1605.8031287249146,344.5410018316053L1606.3910856247405,-339.7638232545126L1606.4220307247313,304.3016167306016L1609.5784309237974,335.44194901086894L1609.7331564237518,272.35889356395626L1610.1973329236143,180.53052948073955L1610.290168223587,303.9798323998208L1610.6305643234864,289.3099441238086L1611.1566310233306,353.262129583485L1611.280411423294,304.18439811703854L1611.7755330231475,344.7497403442204L1612.23970952301,233.69833552148L1612.6729409228822,350.01904287494926L1613.9107449225157,214.62379656101356L1614.1273606224515,316.57370559428364L1614.715317522278,342.73717296411564L1618.3668393211974,342.77635554946806L1618.6144001211242,321.45189724212855L1618.6762903211059,302.45369374032L1619.233302120941,306.6446578033312L1619.9759845207216,337.8651728522985L1623.410890619705,205.48013030377228L1626.1031143189086,331.34547810077305L1628.1145458183137,344.61469683603275L1628.5477772181853,325.10029550359894L1631.0852754174346,331.78031922113604L1633.251432416794,272.12384925178543L1637.3052405155945,242.43345548649756L1638.4502092152557,316.92753377543386L1640.1212446147613,278.6001008512294L1643.8965468136444,167.4388355782384L1646.0008136130216,342.2597115479064L1646.2793195129395,335.57433743627087L1646.4959352128753,329.2026214929509L1647.7956294124906,-291.8991903357126L1647.950354912445,298.22741634483134L1650.921084511566,180.95047141753662L1651.8803826112824,333.027154874427L1652.0660532112274,319.18172100331356L1653.2729121108703,209.63361600812283L1655.934190710083,312.53564284833396L1659.0905909091491,339.72723434127084L1659.8023282089387,331.35776608721915L1659.926108608902,221.1293198995989L1660.7925714086455,297.70595223430064L1661.6280891083984,120.6023706682091L1661.68997930838,293.43849545566206L1662.3398264081877,265.6872556657408L1663.0515637079773,340.62463037999953L1666.2389090070342,341.7593527855247L1673.9751840047454,312.93498046500076L1674.3465252046356,75.1196761506629L1674.9344821044617,261.2790209852398L1676.2032312040863,190.39276500252984L1677.3172548037567,103.79942691642107L1679.3905765031432,284.24560410985976L1680.814051102722,341.56918888099295L1681.618623702484,332.60174917222804L1682.2684708022919,35.72389423343662L1686.043773001175,321.5445252542441L1687.4053574007721,332.058378800146L1692.4803537992705,339.74096689755214L1692.8207498991699,350.3561853602183L1694.3680048987121,293.04462891867485L1697.4934599977873,-243.21787443201322L1697.8338560976867,341.353081233649L1700.8355307967986,11.811589637677445L1701.2687621966704,166.31722035825578L1701.7019935965423,-321.9125387162047L1701.949554396469,319.9168680781484" fill="none"></path></g></g></g></g></g></g><g transform="translate(72, 376)" clip-path="url(#clip_1)"><clipPath id="clip_1"><rect width="1856" height="23"></rect></clipPath><g><g><line x1="0" y1="0" x2="0" y2="5" style="visibility: inherit;" fill="rgb(0, 0, 0)" stroke="rgb(204, 204, 204)" stroke-width="1px"></line><line x1="154.7254999542236" y1="0" x2="154.7254999542236" y2="5" style="visibility: inherit;" fill="rgb(0, 0, 0)" stroke="rgb(204, 204, 204)" stroke-width="1px"></line><line x1="309.4509999084472" y1="0" x2="309.4509999084472" y2="5" style="visibility: inherit;" fill="rgb(0, 0, 0)" stroke="rgb(204, 204, 204)" stroke-width="1px"></line><line x1="464.1764998626709" y1="0" x2="464.1764998626709" y2="5" style="visibility: inherit;" fill="rgb(0, 0, 0)" stroke="rgb(204, 204, 204)" stroke-width="1px"></line><line x1="618.9019998168944" y1="0" x2="618.9019998168944" y2="5" style="visibility: inherit;" fill="rgb(0, 0, 0)" stroke="rgb(204, 204, 204)" stroke-width="1px"></line><line x1="773.6274997711182" y1="0" x2="773.6274997711182" y2="5" style="visibility: inherit;" fill="rgb(0, 0, 0)" stroke="rgb(204, 204, 204)" stroke-width="1px"></line><line x1="928.3529997253418" y1="0" x2="928.3529997253418" y2="5" style="visibility: inherit;" fill="rgb(0, 0, 0)" stroke="rgb(204, 204, 204)" stroke-width="1px"></line><line x1="1083.0784996795655" y1="0" x2="1083.0784996795655" y2="5" style="visibility: inherit;" fill="rgb(0, 0, 0)" stroke="rgb(204, 204, 204)" stroke-width="1px"></line><line x1="1237.8039996337889" y1="0" x2="1237.8039996337889" y2="5" style="visibility: inherit;" fill="rgb(0, 0, 0)" stroke="rgb(204, 204, 204)" stroke-width="1px"></line><line x1="1392.5294995880126" y1="0" x2="1392.5294995880126" y2="5" style="visibility: inherit;" fill="rgb(0, 0, 0)" stroke="rgb(204, 204, 204)" stroke-width="1px"></line><line x1="1547.2549995422364" y1="0" x2="1547.2549995422364" y2="5" style="visibility: inherit;" fill="rgb(0, 0, 0)" stroke="rgb(204, 204, 204)" stroke-width="1px"></line><line x1="1701.9804994964597" y1="0" x2="1701.9804994964597" y2="5" style="visibility: inherit;" fill="rgb(0, 0, 0)" stroke="rgb(204, 204, 204)" stroke-width="1px"></line><line x1="1856.7059994506835" y1="0" x2="1856.7059994506835" y2="5" style="visibility: inherit;" fill="rgb(0, 0, 0)" stroke="rgb(204, 204, 204)" stroke-width="1px"></line></g><g transform="translate(0, 8)"><text style="text-anchor: middle; visibility: hidden; font-family: Roboto, sans-serif; font-size: 12px; font-weight: 200;" x="0" y="0" dx="0em" dy="0.95em" fill="rgb(33, 33, 33)" stroke="none" stroke-width="1px">-5k</text><text style="text-anchor: middle; visibility: inherit; font-family: Roboto, sans-serif; font-size: 12px; font-weight: 200;" x="154.7254999542236" y="0" dx="0em" dy="0.95em" fill="rgb(33, 33, 33)" stroke="none" stroke-width="1px">0</text><text style="text-anchor: middle; visibility: inherit; font-family: Roboto, sans-serif; font-size: 12px; font-weight: 200;" x="309.4509999084472" y="0" dx="0em" dy="0.95em" fill="rgb(33, 33, 33)" stroke="none" stroke-width="1px">5k</text><text style="text-anchor: middle; visibility: inherit; font-family: Roboto, sans-serif; font-size: 12px; font-weight: 200;" x="464.1764998626709" y="0" dx="0em" dy="0.95em" fill="rgb(33, 33, 33)" stroke="none" stroke-width="1px">10k</text><text style="text-anchor: middle; visibility: inherit; font-family: Roboto, sans-serif; font-size: 12px; font-weight: 200;" x="618.9019998168944" y="0" dx="0em" dy="0.95em" fill="rgb(33, 33, 33)" stroke="none" stroke-width="1px">15k</text><text style="text-anchor: middle; visibility: inherit; font-family: Roboto, sans-serif; font-size: 12px; font-weight: 200;" x="773.6274997711182" y="0" dx="0em" dy="0.95em" fill="rgb(33, 33, 33)" stroke="none" stroke-width="1px">20k</text><text style="text-anchor: middle; visibility: inherit; font-family: Roboto, sans-serif; font-size: 12px; font-weight: 200;" x="928.3529997253418" y="0" dx="0em" dy="0.95em" fill="rgb(33, 33, 33)" stroke="none" stroke-width="1px">25k</text><text style="text-anchor: middle; visibility: inherit; font-family: Roboto, sans-serif; font-size: 12px; font-weight: 200;" x="1083.0784996795655" y="0" dx="0em" dy="0.95em" fill="rgb(33, 33, 33)" stroke="none" stroke-width="1px">30k</text><text style="text-anchor: middle; visibility: inherit; font-family: Roboto, sans-serif; font-size: 12px; font-weight: 200;" x="1237.8039996337889" y="0" dx="0em" dy="0.95em" fill="rgb(33, 33, 33)" stroke="none" stroke-width="1px">35k</text><text style="text-anchor: middle; visibility: inherit; font-family: Roboto, sans-serif; font-size: 12px; font-weight: 200;" x="1392.5294995880126" y="0" dx="0em" dy="0.95em" fill="rgb(33, 33, 33)" stroke="none" stroke-width="1px">40k</text><text style="text-anchor: middle; visibility: inherit; font-family: Roboto, sans-serif; font-size: 12px; font-weight: 200;" x="1547.2549995422364" y="0" dx="0em" dy="0.95em" fill="rgb(33, 33, 33)" stroke="none" stroke-width="1px">45k</text><text style="text-anchor: middle; visibility: inherit; font-family: Roboto, sans-serif; font-size: 12px; font-weight: 200;" x="1701.9804994964597" y="0" dx="0em" dy="0.95em" fill="rgb(33, 33, 33)" stroke="none" stroke-width="1px">50k</text><text style="text-anchor: middle; visibility: hidden; font-family: Roboto, sans-serif; font-size: 12px; font-weight: 200;" x="1856.7059994506835" y="0" dx="0em" dy="0.95em" fill="rgb(33, 33, 33)" stroke="none" stroke-width="1px">55k</text></g><line x1="0" y1="0" x2="1856.7059994506835" y2="0" fill="rgb(0, 0, 0)" stroke="rgb(204, 204, 204)" stroke-width="1px"></line></g></g></g></g></svg>