<svg viewBox="0 0 1928.8333740234375 400" xmlns="http://www.w3.org/2000/svg"><g><g><g><g><g><line x1="30.766000747680664" y1="376.86499977111816" x2="25.766000747680664" y2="376.86499977111816" style="visibility: inherit;" fill="rgb(0, 0, 0)" stroke="rgb(204, 204, 204)" stroke-width="1px"></line><line x1="30.766000747680664" y1="345.45958312352496" x2="25.766000747680664" y2="345.45958312352496" style="visibility: inherit;" fill="rgb(0, 0, 0)" stroke="rgb(204, 204, 204)" stroke-width="1px"></line><line x1="30.766000747680664" y1="314.0541664759318" x2="25.766000747680664" y2="314.0541664759318" style="visibility: inherit;" fill="rgb(0, 0, 0)" stroke="rgb(204, 204, 204)" stroke-width="1px"></line><line x1="30.766000747680664" y1="282.6487498283386" x2="25.766000747680664" y2="282.6487498283386" style="visibility: inherit;" fill="rgb(0, 0, 0)" stroke="rgb(204, 204, 204)" stroke-width="1px"></line><line x1="30.766000747680664" y1="251.24333318074548" x2="25.766000747680664" y2="251.24333318074548" style="visibility: inherit;" fill="rgb(0, 0, 0)" stroke="rgb(204, 204, 204)" stroke-width="1px"></line><line x1="30.766000747680664" y1="219.83791653315222" x2="25.766000747680664" y2="219.83791653315222" style="visibility: inherit;" fill="rgb(0, 0, 0)" stroke="rgb(204, 204, 204)" stroke-width="1px"></line><line x1="30.766000747680664" y1="188.43249988555908" x2="25.766000747680664" y2="188.43249988555908" style="visibility: inherit;" fill="rgb(0, 0, 0)" stroke="rgb(204, 204, 204)" stroke-width="1px"></line><line x1="30.766000747680664" y1="157.02708323796588" x2="25.766000747680664" y2="157.02708323796588" style="visibility: inherit;" fill="rgb(0, 0, 0)" stroke="rgb(204, 204, 204)" stroke-width="1px"></line><line x1="30.766000747680664" y1="125.62166659037274" x2="25.766000747680664" y2="125.62166659037274" style="visibility: inherit;" fill="rgb(0, 0, 0)" stroke="rgb(204, 204, 204)" stroke-width="1px"></line><line x1="30.766000747680664" y1="94.21624994277954" x2="25.766000747680664" y2="94.21624994277954" style="visibility: inherit;" fill="rgb(0, 0, 0)" stroke="rgb(204, 204, 204)" stroke-width="1px"></line><line x1="30.766000747680664" y1="62.81083329518635" x2="25.766000747680664" y2="62.81083329518635" style="visibility: inherit;" fill="rgb(0, 0, 0)" stroke="rgb(204, 204, 204)" stroke-width="1px"></line><line x1="30.766000747680664" y1="31.405416647593196" x2="25.766000747680664" y2="31.405416647593196" style="visibility: inherit;" fill="rgb(0, 0, 0)" stroke="rgb(204, 204, 204)" stroke-width="1px"></line><line x1="30.766000747680664" y1="0" x2="25.766000747680664" y2="0" style="visibility: inherit;" fill="rgb(0, 0, 0)" stroke="rgb(204, 204, 204)" stroke-width="1px"></line></g><g transform="translate(20.766000747680664, 0)"><text style="text-anchor: end; visibility: hidden; font-family: Roboto, sans-serif; font-size: 12px; font-weight: 200;" x="0" y="376.86499977111816" dx="0em" dy="0.3em" fill="rgb(33, 33, 33)" stroke="none" stroke-width="1px">0</text><text style="text-anchor: end; visibility: inherit; font-family: Roboto, sans-serif; font-size: 12px; font-weight: 200;" x="0" y="345.45958312352496" dx="0em" dy="0.3em" fill="rgb(33, 33, 33)" stroke="none" stroke-width="1px">1</text><text style="text-anchor: end; visibility: inherit; font-family: Roboto, sans-serif; font-size: 12px; font-weight: 200;" x="0" y="314.0541664759318" dx="0em" dy="0.3em" fill="rgb(33, 33, 33)" stroke="none" stroke-width="1px">2</text><text style="text-anchor: end; visibility: inherit; font-family: Roboto, sans-serif; font-size: 12px; font-weight: 200;" x="0" y="282.6487498283386" dx="0em" dy="0.3em" fill="rgb(33, 33, 33)" stroke="none" stroke-width="1px">3</text><text style="text-anchor: end; visibility: inherit; font-family: Roboto, sans-serif; font-size: 12px; font-weight: 200;" x="0" y="251.24333318074548" dx="0em" dy="0.3em" fill="rgb(33, 33, 33)" stroke="none" stroke-width="1px">4</text><text style="text-anchor: end; visibility: inherit; font-family: Roboto, sans-serif; font-size: 12px; font-weight: 200;" x="0" y="219.83791653315222" dx="0em" dy="0.3em" fill="rgb(33, 33, 33)" stroke="none" stroke-width="1px">5</text><text style="text-anchor: end; visibility: inherit; font-family: Roboto, sans-serif; font-size: 12px; font-weight: 200;" x="0" y="188.43249988555908" dx="0em" dy="0.3em" fill="rgb(33, 33, 33)" stroke="none" stroke-width="1px">6</text><text style="text-anchor: end; visibility: inherit; font-family: Roboto, sans-serif; font-size: 12px; font-weight: 200;" x="0" y="157.02708323796588" dx="0em" dy="0.3em" fill="rgb(33, 33, 33)" stroke="none" stroke-width="1px">7</text><text style="text-anchor: end; visibility: inherit; font-family: Roboto, sans-serif; font-size: 12px; font-weight: 200;" x="0" y="125.62166659037274" dx="0em" dy="0.3em" fill="rgb(33, 33, 33)" stroke="none" stroke-width="1px">8</text><text style="text-anchor: end; visibility: inherit; font-family: Roboto, sans-serif; font-size: 12px; font-weight: 200;" x="0" y="94.21624994277954" dx="0em" dy="0.3em" fill="rgb(33, 33, 33)" stroke="none" stroke-width="1px">9</text><text style="text-anchor: end; visibility: inherit; font-family: Roboto, sans-serif; font-size: 12px; font-weight: 200;" x="0" y="62.81083329518635" dx="0em" dy="0.3em" fill="rgb(33, 33, 33)" stroke="none" stroke-width="1px">10</text><text style="text-anchor: end; visibility: inherit; font-family: Roboto, sans-serif; font-size: 12px; font-weight: 200;" x="0" y="31.405416647593196" dx="0em" dy="0.3em" fill="rgb(33, 33, 33)" stroke="none" stroke-width="1px">11</text><text style="text-anchor: end; visibility: hidden; font-family: Roboto, sans-serif; font-size: 12px; font-weight: 200;" x="0" y="0" dx="0em" dy="0.3em" fill="rgb(33, 33, 33)" stroke="none" stroke-width="1px">12</text></g><line x1="30.766000747680664" y1="0" x2="30.766000747680664" y2="376.86499977111816" fill="rgb(0, 0, 0)" stroke="rgb(204, 204, 204)" stroke-width="1px"></line></g></g><g transform="translate(30, 0)" clip-path="url(#clip_0)"><clipPath id="clip_0"><rect width="1898" height="376"></rect></clipPath><g><g><g><line x1="0" y1="0" x2="0" y2="376.86499977111816" fill="rgb(0, 0, 0)" stroke="rgb(66, 66, 66)" stroke-width="1px" opacity="0.25"></line><line x1="158.17199993769327" y1="0" x2="158.17199993769327" y2="376.86499977111816" fill="rgb(0, 0, 0)" stroke="rgb(66, 66, 66)" stroke-width="1px" opacity="0.25"></line><line x1="316.34399987538654" y1="0" x2="316.34399987538654" y2="376.86499977111816" fill="rgb(0, 0, 0)" stroke="rgb(66, 66, 66)" stroke-width="1px" opacity="0.25"></line><line x1="474.5159998130798" y1="0" x2="474.5159998130798" y2="376.86499977111816" fill="rgb(0, 0, 0)" stroke="rgb(66, 66, 66)" stroke-width="1px" opacity="0.25"></line><line x1="632.6879997507731" y1="0" x2="632.6879997507731" y2="376.86499977111816" fill="rgb(0, 0, 0)" stroke="rgb(66, 66, 66)" stroke-width="1px" opacity="0.25"></line><line x1="790.8599996884664" y1="0" x2="790.8599996884664" y2="376.86499977111816" fill="rgb(0, 0, 0)" stroke="rgb(66, 66, 66)" stroke-width="1px" opacity="0.25"></line><line x1="949.0319996261596" y1="0" x2="949.0319996261596" y2="376.86499977111816" fill="rgb(0, 0, 0)" stroke="rgb(66, 66, 66)" stroke-width="1px" opacity="0.25"></line><line x1="1107.203999563853" y1="0" x2="1107.203999563853" y2="376.86499977111816" fill="rgb(0, 0, 0)" stroke="rgb(66, 66, 66)" stroke-width="1px" opacity="0.25"></line><line x1="1265.3759995015462" y1="0" x2="1265.3759995015462" y2="376.86499977111816" fill="rgb(0, 0, 0)" stroke="rgb(66, 66, 66)" stroke-width="1px" opacity="0.25"></line><line x1="1423.5479994392394" y1="0" x2="1423.5479994392394" y2="376.86499977111816" fill="rgb(0, 0, 0)" stroke="rgb(66, 66, 66)" stroke-width="1px" opacity="0.25"></line><line x1="1581.7199993769327" y1="0" x2="1581.7199993769327" y2="376.86499977111816" fill="rgb(0, 0, 0)" stroke="rgb(66, 66, 66)" stroke-width="1px" opacity="0.25"></line><line x1="1739.891999314626" y1="0" x2="1739.891999314626" y2="376.86499977111816" fill="rgb(0, 0, 0)" stroke="rgb(66, 66, 66)" stroke-width="1px" opacity="0.25"></line><line x1="1898.0639992523193" y1="0" x2="1898.0639992523193" y2="376.86499977111816" fill="rgb(0, 0, 0)" stroke="rgb(66, 66, 66)" stroke-width="1px" opacity="0.25"></line></g><g><line x1="0" y1="376.86499977111816" x2="1898.0639992523193" y2="376.86499977111816" fill="rgb(0, 0, 0)" stroke="rgb(66, 66, 66)" stroke-width="1px" opacity="0.25"></line><line x1="0" y1="345.45958312352496" x2="1898.0639992523193" y2="345.45958312352496" fill="rgb(0, 0, 0)" stroke="rgb(66, 66, 66)" stroke-width="1px" opacity="0.25"></line><line x1="0" y1="314.0541664759318" x2="1898.0639992523193" y2="314.0541664759318" fill="rgb(0, 0, 0)" stroke="rgb(66, 66, 66)" stroke-width="1px" opacity="0.25"></line><line x1="0" y1="282.6487498283386" x2="1898.0639992523193" y2="282.6487498283386" fill="rgb(0, 0, 0)" stroke="rgb(66, 66, 66)" stroke-width="1px" opacity="0.25"></line><line x1="0" y1="251.24333318074548" x2="1898.0639992523193" y2="251.24333318074548" fill="rgb(0, 0, 0)" stroke="rgb(66, 66, 66)" stroke-width="1px" opacity="0.25"></line><line x1="0" y1="219.83791653315222" x2="1898.0639992523193" y2="219.83791653315222" fill="rgb(0, 0, 0)" stroke="rgb(66, 66, 66)" stroke-width="1px" opacity="0.25"></line><line x1="0" y1="188.43249988555908" x2="1898.0639992523193" y2="188.43249988555908" fill="rgb(0, 0, 0)" stroke="rgb(66, 66, 66)" stroke-width="1px" opacity="0.25"></line><line x1="0" y1="157.02708323796588" x2="1898.0639992523193" y2="157.02708323796588" fill="rgb(0, 0, 0)" stroke="rgb(66, 66, 66)" stroke-width="1px" opacity="0.25"></line><line x1="0" y1="125.62166659037274" x2="1898.0639992523193" y2="125.62166659037274" fill="rgb(0, 0, 0)" stroke="rgb(66, 66, 66)" stroke-width="1px" opacity="0.25"></line><line x1="0" y1="94.21624994277954" x2="1898.0639992523193" y2="94.21624994277954" fill="rgb(0, 0, 0)" stroke="rgb(66, 66, 66)" stroke-width="1px" opacity="0.25"></line><line x1="0" y1="62.81083329518635" x2="1898.0639992523193" y2="62.81083329518635" fill="rgb(0, 0, 0)" stroke="rgb(66, 66, 66)" stroke-width="1px" opacity="0.25"></line><line x1="0" y1="31.405416647593196" x2="1898.0639992523193" y2="31.405416647593196" fill="rgb(0, 0, 0)" stroke="rgb(66, 66, 66)" stroke-width="1px" opacity="0.25"></line><line x1="0" y1="0" x2="1898.0639992523193" y2="0" fill="rgb(0, 0, 0)" stroke="rgb(66, 66, 66)" stroke-width="1px" opacity="0.25"></line></g></g></g><g><g><line x1="0" y1="376.86499977111816" x2="1898.0639992523193" y2="376.86499977111816" fill="rgb(0, 0, 0)" stroke="rgb(153, 153, 153)" stroke-width="1.5px"></line></g></g><g><g><line x1="158.17199993769327" y1="0" x2="158.17199993769327" y2="376.86499977111816" fill="rgb(0, 0, 0)" stroke="rgb(153, 153, 153)" stroke-width="1.5px"></line></g></g><g><g><g><g><g><path style="fill: none;" stroke="rgb(0, 153, 136)" stroke-width="2px" d="M161.5568807363599,314.0541664759318L163.6131167355499,345.4752936871301L165.89079353465272,334.9911039216954L166.3653095344658,345.47529368713026L170.8890287326838,345.47214528389657L172.88199593189876,324.48069846074645L174.30554393133798,318.48675390507753L175.19130713098906,325.80961345075L175.76072633076475,328.001691297042L177.0261023302663,329.7553509409546L178.9874351294937,331.19016098314205L182.34068152817278,335.01737723015435L183.60605752767435,333.39512464171526L185.56739032690174,332.0046254388119L186.20007832665254,335.01630775628564L190.280915925045,333.6963200683845L190.62889432490792,330.6694273301077L190.97687272477086,329.7384863289851L193.76069992367425,327.2376990911152L193.98214072358704,324.986997711355L194.99444152318827,327.48217319761534L195.37405432303873,325.4228104817878L195.62712952293904,326.30359566405264L197.77826872209167,328.43464917143143L197.84153752206674,329.1238539270225L198.3793223218549,327.31390552690823L201.70093432054645,329.17310056529817L202.99794472003555,327.4889767558378L204.29495511952462,328.1173717010446L205.43379351907603,328.70387081235395L205.93994391887665,327.1958181029112L206.03484711883925,328.77217092565877L207.14205111840312,330.2529793082587L207.67983591819126,328.8296180324522L211.00144791688282,330.2255290378332L219.54273591351827,331.543881733851L220.17542391326904,328.47011381129334L220.20705831325657,329.76737732725235L232.79754950829695,329.35676827230856L235.23339830733744,326.56504153114207L235.39157030727512,324.69092707903076L236.05589270701344,324.4324418969184L236.15079590697604,324.93178959208814L237.3529031065025,324.67921580002513L239.6938487055804,325.86460862951367L241.52864390485763,326.3002459477812L241.7817191047579,326.7173423069859L243.078729504247,326.447275809902L243.36343910413487,325.5317971498631L243.83795510394796,325.9402005217546L244.12266470383577,326.96390558015565L245.73601910320028,326.7092546821989L246.27380390298842,326.46421537780225L248.1402335022532,325.63111864260827L252.22107110064567,326.588029781967L255.70085509927497,327.51075705708047L256.36517749901327,328.40109961879114L256.3968118990008,328.14661956273363L257.66218789850234,326.25710975203583L259.3704454978294,326.04766655903563L259.9398646976051,324.7841966756775L260.69909029730604,325.6500991553823L261.458315897007,325.9743869514222L261.5532190969696,325.27586842091415L264.337046295873,324.5988499965703L265.85549749527485,323.4508772020865L268.3546150942904,324.27470964975413L268.89239989407855,323.1643261964633L269.7148942937546,323.96936687339314L270.98027029325607,324.7513973864358L272.05583989283247,324.13739836257616L272.5619902926331,323.99232136901145L273.7640974921595,323.40533090033495L274.20697909198503,323.27429373628996L274.30188229194766,323.58118102730515L275.59889269143673,323.02214018443493L277.81330069056446,323.324752578154L279.901171089742,322.3645845283057L282.02067588890714,322.2552320284858L285.08921268769836,322.96518184956426L285.4371910875613,322.8507086489782L288.1577494864896,323.5364664924376L288.53736228634006,323.4174722845488L290.43542628559237,323.69092255027135L290.7834046854553,323.57271898133473L291.8906086850192,323.4572659696415L294.76933908388514,322.59100514375467L295.08568308376056,322.8623474454305L301.7605414811312,323.4962173768826L302.55140148081966,323.75127920328936L305.2403254797605,322.9180830253403L306.53733587924955,323.174420432447L311.02942067748006,323.7787113224797L311.15595827743016,323.3204900743621L312.611140676857,323.2182920583646L318.8431174744021,322.43236435683093L319.12782707428994,323.020901385189L319.191095874265,322.9248932257806L320.51974067374164,322.8308261628809L320.6462782736918,322.07891872235047L321.24733187345504,321.3419128318458L322.2596326730563,321.5905062385358L322.6708798728943,322.15499527883986L323.4617398725827,321.7552218799714L324.6322126721217,321.36307001544384L325.67614787171044,321.2904335430204L327.79565267087554,320.2911221781127L329.0926630703646,320.8434886776178L330.7060174697291,320.4738090541288L337.4441446670748,320.1108574773117L340.3228750659408,320.6508025663082L342.6638206650187,320.5885735793998L343.73939026459504,319.93987996532286L344.150637464433,320.46797691014456L346.58648626347355,320.40896414819196L347.37734626316194,320.0643626226753L347.88349666296256,320.5785496509913L349.6550230622648,321.08401178070847L351.489818261542,321.02138233881465L352.34394706120554,319.2942113123091L352.4704846611557,318.9728153777473L355.09613986012135,318.6566946089871L355.66555905989713,318.34572034329426L356.80439745944847,318.03976806834373L358.481020658788,318.0058648732414L358.54428945876316,317.9725005197055L359.30351505846403,317.1500675578769L359.33514945845155,317.1243119450736L359.4933214583893,317.09895618541873L359.65149345832697,317.5889957031466L365.408954256059,318.07154323869486L365.9783734558347,316.51597639536686L366.4845238556353,317.0003450542455L366.642695855573,316.7265585975292L366.92740545546087,316.9539792021148L371.07151185382844,315.6968579077949L371.7041998535792,315.43885005126776L373.3491886529312,314.69753602315996L374.61456465243276,315.176364269028L374.86763985233307,315.16777838555004L377.0504134514732,315.1593144852797L379.328090250576,314.9138412860184L379.4862622505137,314.671807010373L379.5495310504887,314.1990762760383L381.32105744979094,313.96544017679406L384.80084144842016,313.9660930300729L386.16112064788433,313.96673698531447L387.61630304731113,313.9673722228846L389.35619504662577,314.19476083139375L390.779743046065,313.9683918823592L393.4053982450307,314.4169572556586L394.2911614446818,314.414385676535L394.41769904463195,314.19058309389936L394.48096784460705,313.9696926745256L395.6198062441584,314.1889033909694L396.79027904369735,313.9706438890394L398.3719990430743,313.97121846814355L398.71997744293725,313.7570004525836L399.98535344243874,313.7590210074148L402.61100864140445,312.69948038412673L402.7059118413671,313.13076838333893L403.5284062410431,313.3468300448927L404.73051344056955,312.9341221608101L405.5846422402331,313.1490562308515L406.6602118398094,312.94862877781264L407.92558783931094,312.75062156161397L410.80431823817696,312.55499110476774L415.1065966364822,312.3616949649632L420.4528102343763,312.5744576017746L423.80605663305533,312.9855042106442L428.5828510311737,313.39173174092457L428.7726574310989,313.1972707146338L430.7972590303014,312.8074644172171L432.0942694297905,312.81526721662794L433.20147342935434,313.01851109554684L434.1505054289805,312.05235584504993L435.03626862863155,311.4841634959919L435.7954942283325,311.49991761679564L435.8587630283076,311.1324299070406L437.2823110277468,311.34071940797463L437.5986550276222,311.35710098075424L438.7691278271611,311.37330204728914L438.9905686270739,311.38932556671557L444.71639502481844,311.21839394959244L446.7093622240333,311.6068982981294L447.69002862364704,311.43635929419867L450.85346862240095,311.63575244447554L452.0872102219149,311.649857007999L452.4668230217654,310.57012932867565L453.22604862146625,309.86461870462506L454.23834942106754,309.8887039907937L459.90090701883696,310.0922308468282L460.1856166187248,310.1147934261605L464.1082822171796,309.9591096827785L465.4052926166687,309.98221353629515L466.70230301615777,309.1232449934196L466.7339374161453,309.1508089327382L467.303356615921,308.828584124753L469.359592615111,309.205450984193L470.30862461473714,309.4053621953261L471.1627534144007,309.2584848889626L471.89034461411416,309.1130666865388L472.8710110137278,308.9690860247469L472.9026454137154,309.1667370250089L473.2506238135783,309.1930934133113L473.66187101341626,309.21919302232953L473.8516774133415,309.24503957353875L474.2945590131671,309.2706367168479L476.50896701229476,309.4624275999071L477.3630958119583,308.4922963559246L478.34376221157197,308.8515638374904L478.88154701136017,308.71446325950296L480.55817021069964,308.9059139075533L481.09595501048784,308.7696815263564L481.3173958104006,308.63472123793423L485.334964608818,308.6626059606366L485.4298678087806,309.0120797040288L485.46150220876814,309.3583347404746L487.01158780815757,309.06298435920763L488.59330780753453,309.40616488069065L489.0045550073725,309.11296401378075L490.36483420683675,308.9800939180658L490.90261900662483,308.69137318418365L492.26289820608906,309.0309264926296L494.85691900506714,308.9000454268118L494.9201878050422,309.2358869575804L496.8815206042696,309.1050252490487L497.1978646041451,308.82134299321626L497.4193054040578,309.15364811655854L506.87799100033186,308.260799683672L507.03616300026954,307.6801019201161L507.28923820016985,307.71087281208446L507.85865739994557,307.28828227310134L509.12403339944706,307.47115559799335L509.88325899914804,307.0529026332635L510.07306539907324,306.93686509918155L512.8568925979766,306.2267363737874L513.0466989979019,306.5601068774235L516.6213861964937,306.5953433138115L518.6143533957087,306.9245267046932L519.0888693955218,307.10438432133407L520.1644389950982,307.1367030462895L531.0150381908238,307.16875448071016L532.0589733904126,307.0555545822056L532.9447365900637,307.37667788707785L533.5774245898145,307.2633374938435L536.899036588506,307.0074867916992L538.6389285878207,307.0395555080988L540.1890141872101,306.928948208616L543.3208197859764,306.961145799695L543.4473573859266,306.99308550546937L545.2188837852287,307.30661879714955L547.3383885843938,307.6176605015169L547.7812701842194,307.36644558829425L548.9833773837458,307.256678129709L550.3752909831975,307.14777285758055L550.4385597831725,307.1782335656285L551.6090325827115,307.3464999110434L552.8427741822255,307.2383078840111L552.9693117821756,307.4051775207375L555.3102573812535,307.434108852729L556.7970741806679,307.46281808614765L560.1819549793346,307.35556467859163L566.2873941769294,307.24912846169616L566.4139317768796,307.27834770485515L567.6476733763935,306.50091703725246L568.5334365760447,306.5331367829367L568.6599741759948,306.4315852640086L575.366466973353,306.1976966830967L579.0360573719075,305.9655510161505L580.4596053713468,306.1318508503608L581.6933469708608,306.0332856505125L582.6423789704869,305.54125513645363L583.8128517700259,305.5767593067574L585.9323565691909,305.48143738196194L586.818119768842,305.256655216136L587.0711949687424,305.16325363201076L589.1274309679324,305.45855525642435L589.7284845676955,304.849144843709L589.8866565676333,304.7582795795427L594.7899885657018,304.7962099287753L596.276805365116,304.57836718496964L600.1362021635957,304.616795014421L600.4209117634837,304.4010054351592L601.2434061631596,304.43991488503207L602.5087821626612,304.47855040626666L606.6528885610288,304.26526489674194L607.0008669608917,304.0534706638868L607.5702861606674,304.0932988259368L609.2152749600194,303.88344766088215L609.4367157599322,304.0480449012956L612.2521773588231,304.2115068385078L612.4736181587359,304.0030423025956L613.8655317581877,304.0424842864683L614.3084133580131,303.9587771220318L617.9780037565677,303.8756396324008L619.3066485560443,303.1822235482733L620.761830955471,303.1025775795874L621.4577877551969,303.1449350521844L624.6212277539507,303.18700804596614L626.9621733530286,303.10802497491807L627.9744741526298,303.1500006188159L628.3857213524678,303.1916970980709L628.5122589524179,302.9936109376457L630.3154197517077,302.43858213285057L630.7899357515207,301.8872089807567L633.2890533505363,301.6957115199647L634.7442357499631,301.62388983569224L634.7758701499507,301.43444133467267L634.9024077499008,301.3639950254469L636.1677837494024,301.52889991304426L636.6106653492278,301.4584864643966L637.0535469490534,300.9212963483195L637.5280629488665,299.9215925367294L638.5403637484677,299.9738722540936L638.9832453482933,299.9099550759601L643.253889346611,299.84644450354153L644.139652546262,299.8985804516237L644.42436214615,299.8354498636007L645.9428133455517,299.31418907465473L647.1132861450907,299.1391907582232L648.1888557446671,299.42140053580783L651.9849837431717,299.24693280121375L652.8707469428227,299.0735513550167L655.2116925419007,299.3537898836117L656.7301437413024,298.6167137062159L657.7740789408913,298.55948788030696L658.6282077405548,298.6148744440158L660.3048309398943,298.5579492281364L661.8549165392837,298.389686552557L665.3347005379129,298.33385055315006L666.7266141373647,298.2783539743082L668.0236245368537,297.77984802516335L670.1747637360064,297.8371386758655L670.2063981359939,296.9015742559074L671.9462901353086,297.0716566221624L674.2239669344114,297.24072013802396L675.2679021340001,297.18986380125943L676.7230845334268,297.1393103472364L677.3241381331901,296.9801431614883L677.8302885329908,296.93056426973834L687.4471461292026,296.88127811158313L687.5736837291527,296.8322821264802L690.7054893279189,296.3521704439796L691.7177901275202,296.19763619975544L692.1606717273457,296.1513326314216L692.2555749273084,295.6770196111199L693.0148005270092,295.5258969887191L694.2801765265109,295.3756491043166L698.3610141249034,295.43887281940596L699.752927724355,295.3956833524611L699.9427341242803,295.35274178973043L699.9743685242678,295.3100460242037L704.276646922573,294.63579877015667L704.5929909224484,294.80580579322685L708.4207533209405,294.34601023024373L709.5912261204796,294.09794138544123L713.7669669188347,293.9555919258537L715.9497405179748,293.9181211664219L717.7212669172769,293.77702385187723L718.0059765171649,293.8439126903962L719.0815461167412,294.013788402841L720.2520189162801,293.873345535158L723.826706114872,293.3221260257613L725.534963714199,293.18458221734716L727.7493717133268,293.35506779490623L731.4189621118812,293.62680603316153L731.6720373117815,293.7950886750127L731.7985749117317,293.7589815862642L731.9251125116818,293.7230718766881L734.1395205108095,293.68735795006427L736.3222941099498,293.55078276099385L738.0938205092519,293.0116209123415L740.4031317083422,292.9784227355854L741.1623573080432,292.84501545176795L742.3960989075572,292.51198966837603L742.8073461073951,291.381156478855L743.0920557072831,291.45315735561076L744.1043565068843,291.2262282359404L747.0779901057128,290.80190806784856L747.6474093054885,290.97435568804383L751.6017093039309,290.94814448349865L751.7915157038561,290.72475062741927L751.8864189038187,290.7978837243456L752.2660317036691,290.2811920408492L752.7405477034823,289.86524186302364L756.188697302124,289.84276340738L758.9408901010398,289.9180196937629L762.6737492995694,289.7980601047813L762.8002868995195,289.7759311710728L765.8371892983233,289.7539168576284L768.0199628974635,289.7320162871412L769.3169732969525,289.6136274437601L771.1517684962298,289.592248286546L772.0691660958684,289.5709787727635L772.5120476956939,289.64582192241085L774.979530894722,289.52866955411264L775.0744340946845,289.1252814305389L776.4979820941238,289.2010201431284L778.7440244932391,289.46681830404566L779.9144972927779,289.25613081902486L785.8301300904477,289.4258509099554L786.4628180901984,289.4054270442289L787.5383876897748,289.2906506604557L788.0445380895754,289.3649802320356L788.3925164894383,289.34486122662025L790.2905804886907,288.9492821480575L790.4171180886408,288.93048339083816L790.8283652884788,288.8182597001587L791.3028812882919,288.2399233590711L800.6982980845909,288.1301898362618L802.3116524839554,288.3928647766733L803.3239532835566,288.37589417422237L803.6086628834445,288.3590067156838L804.2097164832077,288.34220179992167L804.7791356829833,288.4177237106045L806.4557588823229,288.5849447299236L809.1446828812637,288.0162418091237L809.2395860812263,288.0922796723767L810.4100588807653,288.25948680904986L811.2958220804163,288.24316457708835L811.8652412801921,288.1357332214158L811.9285100801671,288.11983168692353L814.9021436789958,287.74063849728725L817.4645300779863,287.725937743318L820.8177764766655,287.8018066054407L820.9443140766156,287.7869851643739L821.4820988764038,287.862394462299L821.6402708763414,287.6674706487063L821.8300772762667,287.6531163063448L822.4943996760051,287.72848732041643L823.6332380755564,287.62452055395704L824.139388475357,287.34238840574636L826.5752372743975,287.0615766287758L829.8652148731014,287.1380697175449L830.9407844726779,287.39187739061043L832.3326980721296,287.55583181877535L834.8318156711451,287.5420018696912L835.7492132707838,287.7049384865238L840.9056204687525,286.9852089884326L841.2535988686154,286.973053505904L841.4117708685532,286.96095391292636L842.1393620682665,286.77347777550517L843.8792540675811,286.49930084073907L843.9425228675562,286.2263763130538L848.1815324658864,286.2164373316514L849.2254676654752,286.2065435537338L856.1217668627586,286.28363285110237L856.8809924624595,286.18680361526424L858.7474220617244,286.17704388135263L859.2535724615249,286.2538080328059L861.37307726069,285.9849128410032L863.1446036599922,285.97575827026435L863.8405604597181,285.2784227955092L866.0866028588332,285.2712319327714L866.1498716588084,285.00688412298535L867.3203444583473,285.0004580659735L876.3361484547958,285.07949481620375L878.0444060541229,285.072893654121L878.8352660538114,285.06632169426024L883.2640820520668,284.7197946456747L888.0092420501976,284.71419909155935L888.736833249911,284.45450689843204L889.1164460497614,284.44964464035337L895.1902508473688,284.4448036686311L896.20255164697,284.43998384619414L898.606766046023,284.35104829337513L898.6384004460106,284.3464953918538L901.5803996448516,284.25810696857L904.3958612437425,284.2538170047457L904.4591300437177,284.08239305188766L906.1673876430448,283.9951464974462L906.2622908430073,283.8249760136035L919.6120076377487,283.73869910556704L929.3554028339105,283.0716143847117L932.2341332327766,282.9047199759613L932.3606708327268,282.57303147118154L932.96172443249,282.0775201220193L936.5680460310695,282.1615043296234L939.6682172298482,281.9980820031654L940.1110988296738,281.5064857202655L941.3764748291753,280.8528007730833L943.5908828283029,280.44772943187667L944.065398828116,280.2898239498875L945.0776996277173,280.21427101657866L945.29914042763,279.1603371332715L947.0706668269322,278.8436694088336L947.703354826683,278.4470263924387L947.7666236266581,278.13320734902993L948.7472900262718,278.1448596467742L950.7086228254992,277.75189663387437L952.575052424764,277.6029210453726L954.9476324238293,277.61588035529246L956.9089652230567,277.5482532397116L961.6224908212001,277.4004977727537L963.0776732206267,277.333632054124L963.8052644203402,277.3471980091766L969.5627252180723,277.6008069782655L971.2709828173994,277.2940145929871L971.5873268172747,277.3076183755222L971.6505956172498,277.24150353180164L972.9792404167265,277.175657574792L974.782401216016,277.1894981441983L977.7244004148572,276.8860905985362L978.0407444147326,276.9006190351484L978.420357214583,276.59886079274867L983.7349364124896,276.6140671355729L984.0196460123773,276.4715764393376L984.2727212122776,276.4870558777041L984.5257964121781,276.5024733087387L985.5064628117917,276.2039773429701L988.986246810421,276.2984003458391L989.8403756100844,276.23598998533043L990.2516228099227,276.251939926167L990.3148916098977,276.18983040421506L992.5925684090004,275.9722056550902L993.984482008452,275.67767581418974L998.0653196068446,275.4619592657954L999.2357924063834,275.3246292254838L999.3939644063211,274.9555701182631L1001.1022220056482,274.97450817937766L1002.5890388050626,274.9933720485259L1004.4871028043149,274.7038241290955L1006.4484356035423,274.9542142516129L1006.4800700035298,275.1267677721901L1009.5802412023087,274.99165043845767L1011.3517676016108,275.01033621639L1012.7436812010624,274.8758914636429L1013.2181972008757,274.741966751816L1014.1672292005018,274.37962948110606L1015.590777199941,274.55209522690524L1016.1918307997041,274.11515829514315L1016.7296155994923,273.9838364599468L1022.0441947973989,273.8530180452464L1023.9106243966636,273.41962310458507L1026.283204395729,273.6688452499111L1026.3781075956915,273.5393374773379L1026.6628171955797,273.3348727952709L1028.7823219947447,272.67911985947654L1029.2884723945451,272.7030044087513L1032.1039339934362,272.42626230260987L1032.8947939931247,271.92547739247493L1037.3552443913675,271.951060452092L1038.3991795909565,271.97654715866184L1038.6522547908567,271.7030639225971L1040.5819531900966,271.35599148565063L1044.1250059887009,271.01021939475766L1045.3587475882148,270.66574052783204L1047.1619083875046,270.3225478146731L1050.356982786246,270.4258812158903L1050.958036386009,269.78776184401664L1055.4184867842523,269.52204367296287L1058.2339483831431,269.18340481291426L1058.4870235830433,269.2150498070439L1060.226915582358,269.17287130540666L1062.4413235814857,268.5419890698265L1063.3903555811119,268.3544819473556L1063.80160278095,268.6081254850465L1068.9896443789062,268.12771647886086L1069.0529131788815,268.0151399734696L1070.9509771781336,267.3180381928096L1071.8367403777847,267.20764304942935L1074.6838363766633,266.9518032977616L1074.7471051766383,266.4784128784896L1075.0634491765136,266.6613241311518L1079.3340931748314,266.26248611483L1079.555533974744,265.64747077067517L1083.7629091730867,265.6142434931184L1085.376263572451,265.58113612808864L1086.7365427719153,264.97009321917574L1088.34989717128,264.938552036571L1089.2040259709433,264.8350546613676L1091.0704555702082,264.3720470281142L1093.4430355692734,263.695046337053L1095.1829275685882,263.52300074726634L1095.6890779683888,263.2081715611996L1096.7962819679526,262.67964323533744L1096.9860883678778,262.2245093966524L1100.3709691665445,261.69956715898803L1100.5924099664574,261.4618178476004L1101.1301947662453,261.2961523053087L1101.857785965959,260.775310462194L1102.395570765747,260.6826796886256L1103.218065165423,260.6613478165003L1106.033526764314,260.64009093333686L1106.3815051641768,260.33573086349423L1107.1723651638654,260.3859661193318L1108.9438915631677,260.5066430304303L1109.323504363018,259.7805463979926L1109.734751562856,259.76139763710273L1113.5308795613607,259.7423155449909L1114.891158760825,259.5124988132805L1115.2391371606877,259.35365981732485L1115.3024059606628,259.4056520230082L1115.4289435606129,258.9674128041345L1116.6943195601145,258.7404515506611L1117.7382547597033,258.65394454247L1118.244405159504,258.77698665516203L1126.6275211562017,258.202952160972L1129.0317355552545,257.7004685416621L1129.4429827550925,257.40819526535165L1130.9614339544944,257.39456975027537L1135.4218843527374,257.31166275296175L1136.276013152401,257.02130529527193L1137.0668731520893,256.6627755940839L1137.351582751977,256.0982308830659L1137.5413891519026,255.81158393671265L1137.7944643518028,255.5948214572099L1139.0282059513167,255.3787926213195L1142.571258749921,255.36973981000634L1145.5132579487622,255.15471650207763L1146.557193148351,255.14617451302868L1148.7716011474786,254.86364310510857L1150.732933946706,254.92417916128187L1151.8085035462825,255.05285536186238L1153.6749331455471,255.11283784212787L1158.0404803438275,255.03625409566607L1158.7364371435535,254.68751363335574L1159.717103543167,253.9998175428799L1160.8559419427186,253.99385399741098L1160.9824795426687,253.8521794199715L1161.2355547425689,253.64318819675623L1163.2285219417838,253.57030595407875L1163.3234251417464,253.63292504082816L1166.645037140438,253.4926806999969L1167.3726283401513,253.21794983493433L1167.878778739952,253.07891797823012L1168.3216603397777,252.94034330024598L1168.985982739516,252.86946669979093L1169.7135739392293,252.9331553405421L1170.2829931390052,252.72827532392427L1170.9156811387559,252.7251067062596L1175.9455507367745,252.25338243602306L1177.0527547363383,251.3151591321041L1178.5079371357651,251.04785859773165L1186.5114403326122,251.11498561666787L1186.9543219324378,251.18189482333915L1188.4727731318396,250.64952740702827L1189.959589931254,250.5842967670043L1194.072061929634,250.58569044285832L1196.128297928824,250.2553814478261L1196.1599323288115,250.25746604152732L1196.539545128662,250.12715903298897L1196.5711795286495,250.19562817362998L1199.0070283276903,250.19783151777483L1201.0316299268927,250.26600124185484L1201.6643179266432,249.8726466748512L1202.4868123263193,249.61220538480535L1207.9595635241635,249.68137715088258L1209.2249395236652,249.7503286665781L1210.9331971229922,249.81906094782548L1214.5395187215715,249.62540834189207L1215.0140347213846,249.56331070857416L1215.1722067213223,249.30521098067803L1215.5834539211603,248.85194066827287L1216.0579699209736,248.66113474368768L1224.2829139177336,248.79687078436055L1224.5359891176338,248.5414712637512L1225.832999517123,248.35192282280968L1227.5096227164624,248.35790522468304L1228.363751516126,248.3638688735213L1229.2811491157645,248.4346539014732L1229.4393211157023,248.1813622080564L1229.5025899156774,248.05826586948996L1230.135277915428,247.93555324105606L1234.4059219137457,247.3612640227235L1236.5570611128985,247.43373405009064L1237.1264803126742,247.50597912064876L1239.9735763115527,247.06310552240538L1242.472693910568,246.94307470325575L1242.6308659105057,246.56650649012616L1245.2565211094716,245.8703004504382L1248.4199611082254,245.4967066569743L1248.7679395080884,245.1242629577126L1249.5271651077892,244.8808845000506L1253.449830706244,244.8938288167894L1254.8733787056833,244.8429055777981L1257.1826899047737,244.9196623339751L1259.3970979039013,244.996184412035L1261.4849683030789,245.1361038416218L1262.49726910268,245.08489934060634L1263.1932259024059,244.84334853472407L1263.4146667023188,244.91971179674047L1263.6993763022065,244.86910060947687L1263.7626451021815,244.50210869829846L1263.8259139021568,244.45244122662996L1264.3320643019574,244.4029239707685L1266.0086875012971,244.16421217719144L1266.831181900973,244.24147560212992L1267.7485795006116,243.87759330763853L1268.9823211001255,243.7665028164581L1269.8048154998016,243.46716245809233L1270.8487506993904,242.60353545350975L1272.2406642988421,242.7462655349185L1277.3021682968483,242.2618378397908L1279.3584042960383,241.9040792035874L1280.054361095764,241.98522830792157L1280.4656082956021,241.81618908540108L1282.0156938949915,241.6476529924511L1282.8065538946798,241.35489138708155L1283.692317094331,241.31220617538105L1283.977026694219,241.020685128018L1285.4638434936332,241.1031044814048L1287.6466170927733,240.99892410327234L1289.5446810920257,241.08122532819647L1292.2336050909664,240.35731667399315L1293.024465090655,240.31684871946786L1294.258206690169,240.09086884622317L1295.365410689733,240.36008887908037L1297.0103994890849,240.25797583572592L1297.263474688985,240.40295229334228L1301.5024842873154,240.48586638654186L1302.8943978867671,240.26064394763364L1305.29861228582,240.15911834745546L1305.5833218857076,239.81204548255636L1312.8592338828416,239.52738506990323L1313.7133626825052,239.48892610248416L1315.8645018816578,239.5118638383709L1316.3706522814584,239.65718860246068L1316.9717058812216,239.6185863782787L1318.7115978805364,239.64120659390184L1318.9646730804366,239.66376145967337L1320.1035114799881,239.44226946173973L1324.3425210783182,239.40422982428865L1325.0384778780442,239.42718044652108L1325.1017466780193,239.51088879456452L1325.1966498779818,239.59435683574756L1325.5762626778323,239.374035489816L1326.0191442776577,239.45761213456788L1326.6518322774084,239.23796483438758L1326.8100042773463,239.32164848103432L1326.9049074773088,239.04218580516203L1328.5182618766733,239.12609125514768L1330.7010354758133,239.02863938090624L1331.1439170756391,238.20765786477142L1332.314389875178,237.99162418200393L1334.08591627448,238.01702865223848L1334.4022602743555,237.98220993043049L1335.0982170740815,237.8873934262576L1340.25462427205,237.6727619366299L1344.3987306704178,237.57870934083272L1345.2528594700811,237.604786066064L1345.3161282700564,237.4511560964249L1346.8029450694708,237.35778146333482L1347.9734178690096,237.08536060310445L1349.112256268561,236.8137035517083L1349.9663850682246,236.72179244490522L1352.33896506729,236.57053030282077L1354.047222666617,236.30058146868637L1354.2053946665549,236.15038841123203L1358.2862322649473,236.23840633690818L1359.678145864399,236.2667842035436L1365.846853861969,235.70166132909776L1372.490077859352,235.67171259066106L1372.5217122593394,235.5233732102073L1372.9645938591652,235.25707592114532L1373.186034659078,235.1097795648287L1375.6851522580935,235.14013004018557L1376.665818657707,234.81622922292286L1378.0893666571465,234.90605363459022L1385.7448914541308,234.64208480889934L1386.820461053707,234.67320558229105L1388.117471453196,234.29249186285736L1388.686890652972,234.32421252640566L1389.034869052835,234.06225216996188L1392.7044594513893,233.85967660173515L1393.33714745114,233.83350556633997L1394.4443514507038,233.33887666064348L1398.3670170491587,233.079659008482L1399.4109522487474,233.05500785722603L1399.442586648735,232.67993522415938L1404.5357250467287,232.59770475039275L1406.1807138460808,232.6323265043627L1407.0032082457567,232.55032522102582L1409.3441538448346,232.35211641972586L1410.5146266443735,232.32893920072195L1410.9258738442115,232.42205585037613L1413.8995074430402,231.70199386655884L1414.4372922428283,231.7961106645325L1414.7536362427036,231.8899740595539L1414.8485394426662,231.57815286846008L1417.5690978415946,231.20929926634494L1420.6060002403983,231.13054182932572L1421.934645039875,230.70535923002907L1423.3898274393018,230.51221177074038L1423.642902639202,230.31958075460784L1424.4970314388654,230.24271961231952L1425.1297194386163,229.935745012454L1427.0277834378687,229.80218341782873L1429.0523850370712,229.9563965860997L1429.0840194370587,229.93789128619167L1429.685073036822,229.68988075059195L1430.982083436311,229.55721036920977L1431.0137178362986,229.48218533384625L1431.4249650361367,229.40735885059232L1432.563803435688,229.10393184010906L1433.860813835177,228.8013060251325L1434.050620235102,228.5565842113769L1435.1894586346536,228.14132973454932L1436.7079098340555,228.24028105677422L1440.0611562327347,227.4844806204686L1440.6305754325103,227.58446140729075L1442.3071986318498,227.3998120815789L1443.0664242315509,227.1588190006505L1448.6340786293576,226.91845656079136L1448.8871538292578,226.90566515892604L1450.4056050286597,226.7795272282951L1451.4811746282362,226.54042956008183L1452.6832818277626,226.2453559168033L1453.347604227501,225.95105014792603L1455.5936466266162,225.88354243421585L1456.5426786262422,225.759746883028L1457.3968074259058,225.7491086392771L1457.4917106258686,225.3438854730434L1457.6182482258187,225.50299531437636L1459.3581402251332,225.43655878101805L1459.3897746251207,225.25781538003196L1463.5022466235007,224.91094870903925L1464.3880098231518,224.67727669764886L1466.0013642225163,224.44420611532837L1467.0136650221177,224.32385906823754L1470.1454706208838,224.03576657517766L1471.7588250202484,223.69243885133716L1471.9486314201736,223.6296437023465L1472.1384378200987,223.39934857546854L1472.2966098200363,222.83458207169184L1473.087469819725,222.6618578424517L1473.3089106196378,222.43381768028024L1473.7834266194507,222.2620721914308L1473.846695419426,222.09076397423533L1474.4793834191767,222.1424009578121L1475.8712970186284,221.69364618725564L1476.314178618454,221.19048854327846L1479.6041562171579,220.91060284011232L1484.0329722154133,220.6314259255227L1485.076907415002,220.74085401607147L1485.5514234148152,220.29628778881437L1485.8044986147156,219.79751423799442L1487.1964122141671,219.57643561012046L1488.4301538136813,219.5768955825363L1488.4617882136688,219.35654030875645L1489.6638954131954,219.13673892808026L1490.5496586128463,219.24820962793729L1490.8660026127216,219.41447915935413L1490.9609058126844,218.9198886630404L1498.3633554097682,218.86650069840036L1498.458258609731,217.98893188377994L1500.4195914089582,217.60777308107822L1501.4002578085722,217.50192554157837L1503.74120340765,217.34151076432585L1508.9292450056064,217.18149541428565L1509.6252018053322,217.07662751572667L1511.1120186047465,216.58905880895338L1513.5795018037745,216.21203674948737L1513.8642114036622,216.32759921830802L1514.085652203575,215.9515890501591L1514.3070930034878,215.79469775819695L1514.8765122032637,215.80171513089132L1515.2877594031015,215.3729801182797L1516.9011138024662,215.1630103795242L1517.597070602192,215.22549330263902L1522.8167466001357,215.07043329780615L1524.3351977995376,214.20975574521248L1524.5566385994505,214.32801717444687L1525.7587457989769,214.17484560081567L1525.8536489989394,214.02204955342378L1527.8149817981669,213.9779275065295L1530.34573379717,213.98802411231844L1534.0153241957246,214.10623925663538L1534.3949369955749,214.27819836693521L1535.9766569949518,213.36986384031803L1537.1154953945031,213.38097603656595L1537.7798177942416,213.1224802321867L1542.4617089923972,212.8646130422607L1543.031128192173,212.60737230515267L1546.2894713908895,212.61975894974958L1547.3017721904907,212.20201733723664L1554.830759387525,212.10763170858402L1555.779791387151,212.12084621721323L1558.1523713862164,211.86578968154845L1558.247274586179,210.80720126386086L1559.0381345858675,210.44760220735063L1561.126004985045,210.19593814214886L1561.5688865848706,210.21236244431006L1563.1506065842475,210.01491167756703L1563.9098321839483,209.65767120161394L1564.7323265836244,209.14113636977376L1565.0170361835123,208.7858800445011L1565.3017457834,208.75133103595766L1565.3966489833626,208.61032026878854L1566.5987561828892,208.1502357112056L1569.825464981618,207.6380519016035L1571.0592065811322,207.4460579812354L1572.577657780534,207.57326866003135L1572.9889049803721,207.22238643653745L1573.1787113802973,206.9784413097388L1573.2103457802848,206.7880906058835L1573.9063025800108,206.6511700450912L1574.159377779911,205.93221462879333L1575.8676353792382,205.32077406553825L1580.1382793775558,205.13373563543595L1580.9607737772317,204.8943063985601L1582.1628809767583,204.60264574732147L1583.1435473763718,204.41719610139253L1583.7762353761227,204.07400765391762L1584.5670953758113,203.78431742174297L1586.2753529751383,203.2846933371606L1588.078513774428,203.31242750290144L1589.5336961738549,203.60301059685239L1593.899243372135,203.57762737567563L1595.2278881716118,203.027183351512L1598.4862313703281,202.63545907029578L1599.7832417698173,202.192209971481L1600.13122016968,201.7499972270569L1600.763908169431,201.5183032441804L1600.8904457693811,201.0778038898929L1601.2700585692317,201.00444311599767L1603.3262945684216,201.19258761276058L1605.6672401674994,200.70127590947288L1607.1224225669262,200.6286869450314L1612.1839265649326,200.45194050621802L1612.5635393647829,199.9628327115732L1613.386033764459,198.95391671886816L1622.022224961057,198.57205628794085L1627.3051697589758,198.29513080112744L1628.9185241583402,198.22681169416074L1629.298136958191,198.10669287037456L1632.65138335687,197.15607489454473L1636.1944361554742,196.98599250881438L1641.0028649535802,196.86815761762836L1641.5090153533808,196.33601744813967L1642.110068953144,196.3747727159619L1642.1417033531316,196.46519377182798L1645.3684121518604,196.29680096910806L1645.5265841517983,195.76697927589902L1646.0011001516111,195.13506200044213L1646.096003351574,194.29810578773717L1646.4439817514367,194.39164665541202L1646.981766551225,194.58808361260856L1647.1083041511752,194.78407235591385L1647.6144545509758,194.67068137760472L1648.0889705507886,194.19735722195946L1648.5318521506144,193.93080243237196L1649.7972281501159,193.20234062795126L1650.0186689500285,192.8350369001418L1650.619722549792,192.41724160867247L1654.3525817483217,191.8465159771209L1654.6056569482218,191.78968355668664L1654.668925748197,191.83543507289681L1655.2383449479726,191.93227849861196L1655.9975705476734,191.77308761896012L1659.5089889462902,191.61425600366414L1662.2611817452062,190.74039865017198L1664.3174177443962,190.68557906279804L1664.7602993442217,190.120534111073L1667.3543201431999,190.0667897152412L1669.5687281423277,189.7583101183293L1673.7128345406952,189.8070991131567L1674.883307340234,189.55033195990512L1676.591564939561,189.1923877239054L1680.4509617380409,188.98777879129696L1682.6021009371934,188.4279349375843L1682.8868105370814,188.68185151167305L1683.1082513369943,188.4784464579274L1684.4368961364708,188.42765297033466L1684.5950681364084,187.97146778418488L1687.631970535212,187.51629834827452L1688.612636934826,187.36589735236194L1688.8024433347512,187.0640456167728L1690.036184934265,187.21794123172205L1692.7567433331935,187.27042881957382L1695.9834521319221,187.37330258176198L1696.7110433316357,186.76934278685098L1696.837580931586,186.31804311552435L1697.723344131237,186.2206158372307L1698.5774729309005,186.0226434340838L1698.6407417308756,186.12720645919467L1699.3050641306138,185.97994193376334L1700.0326553303273,185.83300185820374L1703.2909985290437,185.68638523476565L1711.1995985259284,184.937346247271L1711.579211325779,184.79233698280058L1712.1802649255421,184.04562256704227L1713.4772753250313,182.89943676873852L1714.6161137245826,182.8080474616567L1716.7356185237477,183.0173320203714L1718.1908009231745,182.77571590480028L1719.0132953228504,182.48460845789413L1719.6776177225888,182.29411657191716L1723.5370145210686,182.20396100342936L1724.9289281205204,181.91427876407684L1730.1169697184764,182.124241335438L1730.4649481183394,181.93477087890795L1732.0466681177163,181.64602708011537L1735.2417425164579,181.8062317425317L1735.5897209163206,181.41846162587623L1738.658257715112,180.83251203157542L1739.1011393149377,181.0434499473773L1739.544020914763,181.05514265669373L1739.8603649146385,181.1661464249309" fill="none"></path></g></g></g></g><g opacity="0.2"><g><g><g><path style="fill: none;" stroke="rgb(0, 153, 136)" stroke-width="2px" d="M161.5568807363599,314.0541664759318L163.6131167355499,376.86499977111816L165.89079353465272,314.0541664759318L166.3653095344658,376.86499977111816L170.8890287326838,345.45958312352496L172.88199593189876,219.83791653315222L174.30554393133798,282.6487498283386L175.19130713098906,376.86499977111816L175.76072633076475,345.45958312352496L177.0261023302663,345.45958312352496L178.9874351294937,345.45958312352496L182.34068152817278,376.86499977111816L183.60605752767435,314.0541664759318L185.56739032690174,314.0541664759318L186.20007832665254,376.86499977111816L190.280915925045,314.0541664759318L190.62889432490792,282.6487498283386L190.97687272477086,314.0541664759318L193.76069992367425,282.6487498283386L193.98214072358704,282.6487498283386L194.99444152318827,376.86499977111816L195.37405432303873,282.6487498283386L195.62712952293904,345.45958312352496L197.77826872209167,376.86499977111816L197.84153752206674,345.45958312352496L198.3793223218549,282.6487498283386L201.70093432054645,376.86499977111816L202.99794472003555,282.6487498283386L204.29495511952462,345.45958312352496L205.43379351907603,345.45958312352496L205.93994391887665,282.6487498283386L206.03484711883925,376.86499977111816L207.14205111840312,376.86499977111816L207.67983591819126,282.6487498283386L211.00144791688282,376.86499977111816L219.54273591351827,376.86499977111816L220.17542391326904,219.83791653315222L220.20705831325657,376.86499977111816L232.79754950829695,314.0541664759318L235.23339830733744,219.83791653315222L235.39157030727512,251.24333318074548L236.05589270701344,314.0541664759318L236.15079590697604,345.45958312352496L237.3529031065025,314.0541664759318L239.6938487055804,376.86499977111816L241.52864390485763,345.45958312352496L241.7817191047579,345.45958312352496L243.078729504247,314.0541664759318L243.36343910413487,282.6487498283386L243.83795510394796,345.45958312352496L244.12266470383577,376.86499977111816L245.73601910320028,314.0541664759318L246.27380390298842,314.0541664759318L248.1402335022532,282.6487498283386L252.22107110064567,376.86499977111816L255.70085509927497,376.86499977111816L256.36517749901327,376.86499977111816L256.3968118990008,314.0541664759318L257.66218789850234,219.83791653315222L259.3704454978294,314.0541664759318L259.9398646976051,251.24333318074548L260.69909029730604,376.86499977111816L261.458315897007,345.45958312352496L261.5532190969696,282.6487498283386L264.337046295873,282.6487498283386L265.85549749527485,251.24333318074548L268.3546150942904,376.86499977111816L268.89239989407855,251.24333318074548L269.7148942937546,376.86499977111816L270.98027029325607,376.86499977111816L272.05583989283247,282.6487498283386L272.5619902926331,314.0541664759318L273.7640974921595,282.6487498283386L274.20697909198503,314.0541664759318L274.30188229194766,345.45958312352496L275.59889269143673,282.6487498283386L277.81330069056446,345.45958312352496L279.901171089742,251.24333318074548L282.02067588890714,314.0541664759318L285.08921268769836,376.86499977111816L285.4371910875613,314.0541664759318L288.1577494864896,376.86499977111816L288.53736228634006,314.0541664759318L290.43542628559237,345.45958312352496L290.7834046854553,314.0541664759318L291.8906086850192,314.0541664759318L294.76933908388514,251.24333318074548L295.08568308376056,345.45958312352496L301.7605414811312,376.86499977111816L302.55140148081966,345.45958312352496L305.2403254797605,251.24333318074548L306.53733587924955,345.45958312352496L311.02942067748006,376.86499977111816L311.15595827743016,282.6487498283386L312.611140676857,314.0541664759318L318.8431174744021,251.24333318074548L319.12782707428994,376.86499977111816L319.191095874265,314.0541664759318L320.51974067374164,314.0541664759318L320.6462782736918,251.24333318074548L321.24733187345504,251.24333318074548L322.2596326730563,345.45958312352496L322.6708798728943,376.86499977111816L323.4617398725827,282.6487498283386L324.6322126721217,282.6487498283386L325.67614787171044,314.0541664759318L327.79565267087554,219.83791653315222L329.0926630703646,376.86499977111816L330.7060174697291,282.6487498283386L337.4441446670748,282.6487498283386L340.3228750659408,376.86499977111816L342.6638206650187,314.0541664759318L343.73939026459504,251.24333318074548L344.150637464433,376.86499977111816L346.58648626347355,314.0541664759318L347.37734626316194,282.6487498283386L347.88349666296256,376.86499977111816L349.6550230622648,376.86499977111816L351.489818261542,314.0541664759318L352.34394706120554,125.62166659037274L352.4704846611557,282.6487498283386L355.09613986012135,282.6487498283386L355.66555905989713,282.6487498283386L356.80439745944847,282.6487498283386L358.481020658788,314.0541664759318L358.54428945876316,314.0541664759318L359.30351505846403,219.83791653315222L359.33514945845155,314.0541664759318L359.4933214583893,314.0541664759318L359.65149345832697,376.86499977111816L365.408954256059,376.86499977111816L365.9783734558347,125.62166659037274L366.4845238556353,376.86499977111816L366.642695855573,282.6487498283386L366.92740545546087,345.45958312352496L371.07151185382844,157.02708323796588L371.7041998535792,282.6487498283386L373.3491886529312,219.83791653315222L374.61456465243276,376.86499977111816L374.86763985233307,314.0541664759318L377.0504134514732,314.0541664759318L379.328090250576,282.6487498283386L379.4862622505137,282.6487498283386L379.5495310504887,251.24333318074548L381.32105744979094,282.6487498283386L384.80084144842016,314.0541664759318L386.16112064788433,314.0541664759318L387.61630304731113,314.0541664759318L389.35619504662577,345.45958312352496L390.779743046065,282.6487498283386L393.4053982450307,376.86499977111816L394.2911614446818,314.0541664759318L394.41769904463195,282.6487498283386L394.48096784460705,282.6487498283386L395.6198062441584,345.45958312352496L396.79027904369735,282.6487498283386L398.3719990430743,314.0541664759318L398.71997744293725,282.6487498283386L399.98535344243874,314.0541664759318L402.61100864140445,157.02708323796588L402.7059118413671,376.86499977111816L403.5284062410431,345.45958312352496L404.73051344056955,251.24333318074548L405.5846422402331,345.45958312352496L406.6602118398094,282.6487498283386L407.92558783931094,282.6487498283386L410.80431823817696,282.6487498283386L415.1065966364822,282.6487498283386L420.4528102343763,345.45958312352496L423.80605663305533,376.86499977111816L428.5828510311737,376.86499977111816L428.7726574310989,282.6487498283386L430.7972590303014,251.24333318074548L432.0942694297905,314.0541664759318L433.20147342935434,345.45958312352496L434.1505054289805,157.02708323796588L435.03626862863155,219.83791653315222L435.7954942283325,314.0541664759318L435.8587630283076,251.24333318074548L437.2823110277468,345.45958312352496L437.5986550276222,314.0541664759318L438.7691278271611,314.0541664759318L438.9905686270739,314.0541664759318L444.71639502481844,282.6487498283386L446.7093622240333,376.86499977111816L447.69002862364704,282.6487498283386L450.85346862240095,345.45958312352496L452.0872102219149,314.0541664759318L452.4668230217654,125.62166659037274L453.22604862146625,188.43249988555908L454.23834942106754,314.0541664759318L459.90090701883696,345.45958312352496L460.1856166187248,314.0541664759318L464.1082822171796,282.6487498283386L465.4052926166687,314.0541664759318L466.70230301615777,157.02708323796588L466.7339374161453,314.0541664759318L467.303356615921,251.24333318074548L469.359592615111,376.86499977111816L470.30862461473714,345.45958312352496L471.1627534144007,282.6487498283386L471.89034461411416,282.6487498283386L472.8710110137278,282.6487498283386L472.9026454137154,345.45958312352496L473.2506238135783,314.0541664759318L473.66187101341626,314.0541664759318L473.8516774133415,314.0541664759318L474.2945590131671,314.0541664759318L476.50896701229476,345.45958312352496L477.3630958119583,125.62166659037274L478.34376221157197,376.86499977111816L478.88154701136017,282.6487498283386L480.55817021069964,345.45958312352496L481.09595501048784,282.6487498283386L481.3173958104006,282.6487498283386L485.334964608818,314.0541664759318L485.4298678087806,376.86499977111816L485.46150220876814,376.86499977111816L487.01158780815757,251.24333318074548L488.59330780753453,376.86499977111816L489.0045550073725,251.24333318074548L490.36483420683675,282.6487498283386L490.90261900662483,251.24333318074548L492.26289820608906,376.86499977111816L494.85691900506714,282.6487498283386L494.9201878050422,376.86499977111816L496.8815206042696,282.6487498283386L497.1978646041451,251.24333318074548L497.4193054040578,376.86499977111816L506.87799100033186,125.62166659037274L507.03616300026954,188.43249988555908L507.28923820016985,314.0541664759318L507.85865739994557,219.83791653315222L509.12403339944706,345.45958312352496L509.88325899914804,219.83791653315222L510.07306539907324,282.6487498283386L512.8568925979766,157.02708323796588L513.0466989979019,376.86499977111816L516.6213861964937,314.0541664759318L518.6143533957087,376.86499977111816L519.0888693955218,345.45958312352496L520.1644389950982,314.0541664759318L531.0150381908238,314.0541664759318L532.0589733904126,282.6487498283386L532.9447365900637,376.86499977111816L533.5774245898145,282.6487498283386L536.899036588506,251.24333318074548L538.6389285878207,314.0541664759318L540.1890141872101,282.6487498283386L543.3208197859764,314.0541664759318L543.4473573859266,314.0541664759318L545.2188837852287,376.86499977111816L547.3383885843938,376.86499977111816L547.7812701842194,251.24333318074548L548.9833773837458,282.6487498283386L550.3752909831975,282.6487498283386L550.4385597831725,314.0541664759318L551.6090325827115,345.45958312352496L552.8427741822255,282.6487498283386L552.9693117821756,345.45958312352496L555.3102573812535,314.0541664759318L556.7970741806679,314.0541664759318L560.1819549793346,282.6487498283386L566.2873941769294,282.6487498283386L566.4139317768796,314.0541664759318L567.6476733763935,125.62166659037274L568.5334365760447,314.0541664759318L568.6599741759948,282.6487498283386L575.366466973353,251.24333318074548L579.0360573719075,251.24333318074548L580.4596053713468,345.45958312352496L581.6933469708608,282.6487498283386L582.6423789704869,188.43249988555908L583.8128517700259,314.0541664759318L585.9323565691909,282.6487498283386L586.818119768842,251.24333318074548L587.0711949687424,282.6487498283386L589.1274309679324,376.86499977111816L589.7284845676955,157.02708323796588L589.8866565676333,282.6487498283386L594.7899885657018,314.0541664759318L596.276805365116,251.24333318074548L600.1362021635957,314.0541664759318L600.4209117634837,251.24333318074548L601.2434061631596,314.0541664759318L602.5087821626612,314.0541664759318L606.6528885610288,251.24333318074548L607.0008669608917,251.24333318074548L607.5702861606674,314.0541664759318L609.2152749600194,251.24333318074548L609.4367157599322,345.45958312352496L612.2521773588231,345.45958312352496L612.4736181587359,251.24333318074548L613.8655317581877,314.0541664759318L614.3084133580131,282.6487498283386L617.9780037565677,282.6487498283386L619.3066485560443,125.62166659037274L620.761830955471,282.6487498283386L621.4577877551969,314.0541664759318L624.6212277539507,314.0541664759318L626.9621733530286,282.6487498283386L627.9744741526298,314.0541664759318L628.3857213524678,314.0541664759318L628.5122589524179,251.24333318074548L630.3154197517077,157.02708323796588L630.7899357515207,157.02708323796588L633.2890533505363,251.24333318074548L634.7442357499631,282.6487498283386L634.7758701499507,251.24333318074548L634.9024077499008,282.6487498283386L636.1677837494024,345.45958312352496L636.6106653492278,282.6487498283386L637.0535469490534,157.02708323796588L637.5280629488665,31.405416647593196L638.5403637484677,314.0541664759318L638.9832453482933,282.6487498283386L643.253889346611,282.6487498283386L644.139652546262,314.0541664759318L644.42436214615,282.6487498283386L645.9428133455517,157.02708323796588L647.1132861450907,251.24333318074548L648.1888557446671,376.86499977111816L651.9849837431717,251.24333318074548L652.8707469428227,251.24333318074548L655.2116925419007,376.86499977111816L656.7301437413024,94.21624994277954L657.7740789408913,282.6487498283386L658.6282077405548,314.0541664759318L660.3048309398943,282.6487498283386L661.8549165392837,251.24333318074548L665.3347005379129,282.6487498283386L666.7266141373647,282.6487498283386L668.0236245368537,157.02708323796588L670.1747637360064,314.0541664759318L670.2063981359939,31.405416647593196L671.9462901353086,345.45958312352496L674.2239669344114,345.45958312352496L675.2679021340001,282.6487498283386L676.7230845334268,282.6487498283386L677.3241381331901,251.24333318074548L677.8302885329908,282.6487498283386L687.4471461292026,282.6487498283386L687.5736837291527,282.6487498283386L690.7054893279189,157.02708323796588L691.7177901275202,251.24333318074548L692.1606717273457,282.6487498283386L692.2555749273084,157.02708323796588L693.0148005270092,251.24333318074548L694.2801765265109,251.24333318074548L698.3610141249034,314.0541664759318L699.752927724355,282.6487498283386L699.9427341242803,282.6487498283386L699.9743685242678,282.6487498283386L704.276646922573,94.21624994277954L704.5929909224484,345.45958312352496L708.4207533209405,157.02708323796588L709.5912261204796,219.83791653315222L713.7669669188347,251.24333318074548L715.9497405179748,282.6487498283386L717.7212669172769,251.24333318074548L718.0059765171649,314.0541664759318L719.0815461167412,345.45958312352496L720.2520189162801,251.24333318074548L723.826706114872,125.62166659037274L725.534963714199,251.24333318074548L727.7493717133268,345.45958312352496L731.4189621118812,376.86499977111816L731.6720373117815,345.45958312352496L731.7985749117317,282.6487498283386L731.9251125116818,282.6487498283386L734.1395205108095,282.6487498283386L736.3222941099498,251.24333318074548L738.0938205092519,125.62166659037274L740.4031317083422,282.6487498283386L741.1623573080432,251.24333318074548L742.3960989075572,188.43249988555908L742.8073461073951,-62.81083329518639L743.0920557072831,314.0541664759318L744.1043565068843,219.83791653315222L747.0779901057128,157.02708323796588L747.6474093054885,345.45958312352496L751.6017093039309,282.6487498283386L751.7915157038561,219.83791653315222L751.8864189038187,314.0541664759318L752.2660317036691,125.62166659037274L752.7405477034823,157.02708323796588L756.188697302124,282.6487498283386L758.9408901010398,314.0541664759318L762.6737492995694,251.24333318074548L762.8002868995195,282.6487498283386L765.8371892983233,282.6487498283386L768.0199628974635,282.6487498283386L769.3169732969525,251.24333318074548L771.1517684962298,282.6487498283386L772.0691660958684,282.6487498283386L772.5120476956939,314.0541664759318L774.979530894722,251.24333318074548L775.0744340946845,157.02708323796588L776.4979820941238,314.0541664759318L778.7440244932391,376.86499977111816L779.9144972927779,219.83791653315222L785.8301300904477,345.45958312352496L786.4628180901984,282.6487498283386L787.5383876897748,251.24333318074548L788.0445380895754,314.0541664759318L788.3925164894383,282.6487498283386L790.2905804886907,157.02708323796588L790.4171180886408,282.6487498283386L790.8283652884788,251.24333318074548L791.3028812882919,94.21624994277954L800.6982980845909,251.24333318074548L802.3116524839554,376.86499977111816L803.3239532835566,282.6487498283386L803.6086628834445,282.6487498283386L804.2097164832077,282.6487498283386L804.7791356829833,314.0541664759318L806.4557588823229,345.45958312352496L809.1446828812637,94.21624994277954L809.2395860812263,314.0541664759318L810.4100588807653,345.45958312352496L811.2958220804163,282.6487498283386L811.8652412801921,251.24333318074548L811.9285100801671,282.6487498283386L814.9021436789958,157.02708323796588L817.4645300779863,282.6487498283386L820.8177764766655,314.0541664759318L820.9443140766156,282.6487498283386L821.4820988764038,314.0541664759318L821.6402708763414,219.83791653315222L821.8300772762667,282.6487498283386L822.4943996760051,314.0541664759318L823.6332380755564,251.24333318074548L824.139388475357,188.43249988555908L826.5752372743975,188.43249988555908L829.8652148731014,314.0541664759318L830.9407844726779,376.86499977111816L832.3326980721296,345.45958312352496L834.8318156711451,282.6487498283386L835.7492132707838,345.45958312352496L840.9056204687525,31.405416647593196L841.2535988686154,282.6487498283386L841.4117708685532,282.6487498283386L842.1393620682665,219.83791653315222L843.8792540675811,188.43249988555908L843.9425228675562,188.43249988555908L848.1815324658864,282.6487498283386L849.2254676654752,282.6487498283386L856.1217668627586,314.0541664759318L856.8809924624595,251.24333318074548L858.7474220617244,282.6487498283386L859.2535724615249,314.0541664759318L861.37307726069,188.43249988555908L863.1446036599922,282.6487498283386L863.8405604597181,31.405416647593196L866.0866028588332,282.6487498283386L866.1498716588084,188.43249988555908L867.3203444583473,282.6487498283386L876.3361484547958,314.0541664759318L878.0444060541229,282.6487498283386L878.8352660538114,282.6487498283386L883.2640820520668,157.02708323796588L888.0092420501976,282.6487498283386L888.736833249911,188.43249988555908L889.1164460497614,282.6487498283386L895.1902508473688,282.6487498283386L896.20255164697,282.6487498283386L898.606766046023,251.24333318074548L898.6384004460106,282.6487498283386L901.5803996448516,251.24333318074548L904.3958612437425,282.6487498283386L904.4591300437177,219.83791653315222L906.1673876430448,251.24333318074548L906.2622908430073,219.83791653315222L919.6120076377487,251.24333318074548L929.3554028339105,31.405416647593196L932.2341332327766,219.83791653315222L932.3606708327268,157.02708323796588L932.96172443249,94.21624994277954L936.5680460310695,314.0541664759318L939.6682172298482,219.83791653315222L940.1110988296738,94.21624994277954L941.3764748291753,31.405416647593196L943.5908828283029,125.62166659037274L944.065398828116,219.83791653315222L945.0776996277173,251.24333318074548L945.29914042763,-125.6216665903727L947.0706668269322,157.02708323796588L947.703354826683,125.62166659037274L947.7666236266581,157.02708323796588L948.7472900262718,282.6487498283386L950.7086228254992,125.62166659037274L952.575052424764,219.83791653315222L954.9476324238293,282.6487498283386L956.9089652230567,251.24333318074548L961.6224908212001,219.83791653315222L963.0776732206267,251.24333318074548L963.8052644203402,282.6487498283386L969.5627252180723,376.86499977111816L971.2709828173994,157.02708323796588L971.5873268172747,282.6487498283386L971.6505956172498,251.24333318074548L972.9792404167265,251.24333318074548L974.782401216016,282.6487498283386L977.7244004148572,157.02708323796588L978.0407444147326,282.6487498283386L978.420357214583,157.02708323796588L983.7349364124896,282.6487498283386L984.0196460123773,219.83791653315222L984.2727212122776,282.6487498283386L984.5257964121781,282.6487498283386L985.5064628117917,157.02708323796588L988.986246810421,314.0541664759318L989.8403756100844,251.24333318074548L990.2516228099227,282.6487498283386L990.3148916098977,251.24333318074548L992.5925684090004,188.43249988555908L993.984482008452,157.02708323796588L998.0653196068446,188.43249988555908L999.2357924063834,219.83791653315222L999.3939644063211,125.62166659037274L1001.1022220056482,282.6487498283386L1002.5890388050626,282.6487498283386L1004.4871028043149,157.02708323796588L1006.4484356035423,376.86499977111816L1006.4800700035298,345.45958312352496L1009.5802412023087,219.83791653315222L1011.3517676016108,282.6487498283386L1012.7436812010624,219.83791653315222L1013.2181972008757,219.83791653315222L1014.1672292005018,125.62166659037274L1015.590777199941,345.45958312352496L1016.1918307997041,94.21624994277954L1016.7296155994923,219.83791653315222L1022.0441947973989,219.83791653315222L1023.9106243966636,94.21624994277954L1026.283204395729,376.86499977111816L1026.3781075956915,219.83791653315222L1026.6628171955797,188.43249988555908L1028.7823219947447,0L1029.2884723945451,282.6487498283386L1032.1039339934362,157.02708323796588L1032.8947939931247,62.81083329518635L1037.3552443913675,282.6487498283386L1038.3991795909565,282.6487498283386L1038.6522547908567,157.02708323796588L1040.5819531900966,125.62166659037274L1044.1250059887009,125.62166659037274L1045.3587475882148,125.62166659037274L1047.1619083875046,125.62166659037274L1050.356982786246,314.0541664759318L1050.958036386009,0L1055.4184867842523,157.02708323796588L1058.2339483831431,125.62166659037274L1058.4870235830433,282.6487498283386L1060.226915582358,251.24333318074548L1062.4413235814857,0L1063.3903555811119,188.43249988555908L1063.80160278095,376.86499977111816L1068.9896443789062,62.81083329518635L1069.0529131788815,219.83791653315222L1070.9509771781336,-31.405416647593153L1071.8367403777847,219.83791653315222L1074.6838363766633,157.02708323796588L1074.7471051766383,62.81083329518635L1075.0634491765136,345.45958312352496L1079.3340931748314,94.21624994277954L1079.555533974744,0L1083.7629091730867,251.24333318074548L1085.376263572451,251.24333318074548L1086.7365427719153,0L1088.34989717128,251.24333318074548L1089.2040259709433,219.83791653315222L1091.0704555702082,62.81083329518635L1093.4430355692734,-31.405416647593153L1095.1829275685882,188.43249988555908L1095.6890779683888,125.62166659037274L1096.7962819679526,31.405416647593196L1096.9860883678778,62.81083329518635L1100.3709691665445,31.405416647593196L1100.5924099664574,157.02708323796588L1101.1301947662453,188.43249988555908L1101.857785965959,31.405416647593196L1102.395570765747,219.83791653315222L1103.218065165423,251.24333318074548L1106.033526764314,251.24333318074548L1106.3815051641768,125.62166659037274L1107.1723651638654,282.6487498283386L1108.9438915631677,314.0541664759318L1109.323504363018,-62.81083329518639L1109.734751562856,251.24333318074548L1113.5308795613607,251.24333318074548L1114.891158760825,157.02708323796588L1115.2391371606877,188.43249988555908L1115.3024059606628,282.6487498283386L1115.4289435606129,62.81083329518635L1116.6943195601145,157.02708323796588L1117.7382547597033,219.83791653315222L1118.244405159504,314.0541664759318L1126.6275211562017,0L1129.0317355552545,31.405416647593196L1129.4429827550925,125.62166659037274L1130.9614339544944,251.24333318074548L1135.4218843527374,219.83791653315222L1136.276013152401,125.62166659037274L1137.0668731520893,94.21624994277954L1137.351582751977,0L1137.5413891519026,125.62166659037274L1137.7944643518028,157.02708323796588L1139.0282059513167,157.02708323796588L1142.571258749921,251.24333318074548L1145.5132579487622,157.02708323796588L1146.557193148351,251.24333318074548L1148.7716011474786,125.62166659037274L1150.732933946706,282.6487498283386L1151.8085035462825,314.0541664759318L1153.6749331455471,282.6487498283386L1158.0404803438275,219.83791653315222L1158.7364371435535,94.21624994277954L1159.717103543167,-62.81083329518639L1160.8559419427186,251.24333318074548L1160.9824795426687,188.43249988555908L1161.2355547425689,157.02708323796588L1163.2285219417838,219.83791653315222L1163.3234251417464,282.6487498283386L1166.645037140438,188.43249988555908L1167.3726283401513,125.62166659037274L1167.878778739952,188.43249988555908L1168.3216603397777,188.43249988555908L1168.985982739516,219.83791653315222L1169.7135739392293,282.6487498283386L1170.2829931390052,157.02708323796588L1170.9156811387559,251.24333318074548L1175.9455507367745,31.405416647593196L1177.0527547363383,-188.43249988555908L1178.5079371357651,125.62166659037274L1186.5114403326122,282.6487498283386L1186.9543219324378,282.6487498283386L1188.4727731318396,0L1189.959589931254,219.83791653315222L1194.072061929634,251.24333318074548L1196.128297928824,94.21624994277954L1196.1599323288115,251.24333318074548L1196.539545128662,188.43249988555908L1196.5711795286495,282.6487498283386L1199.0070283276903,251.24333318074548L1201.0316299268927,282.6487498283386L1201.6643179266432,62.81083329518635L1202.4868123263193,125.62166659037274L1207.9595635241635,282.6487498283386L1209.2249395236652,282.6487498283386L1210.9331971229922,282.6487498283386L1214.5395187215715,157.02708323796588L1215.0140347213846,219.83791653315222L1215.1722067213223,125.62166659037274L1215.5834539211603,31.405416647593196L1216.0579699209736,157.02708323796588L1224.2829139177336,314.0541664759318L1224.5359891176338,125.62166659037274L1225.832999517123,157.02708323796588L1227.5096227164624,251.24333318074548L1228.363751516126,251.24333318074548L1229.2811491157645,282.6487498283386L1229.4393211157023,125.62166659037274L1229.5025899156774,188.43249988555908L1230.135277915428,188.43249988555908L1234.4059219137457,-31.405416647593153L1236.5570611128985,282.6487498283386L1237.1264803126742,282.6487498283386L1239.9735763115527,31.405416647593196L1242.472693910568,188.43249988555908L1242.6308659105057,62.81083329518635L1245.2565211094716,-94.21624994277954L1248.4199611082254,62.81083329518635L1248.7679395080884,62.81083329518635L1249.5271651077892,125.62166659037274L1253.449830706244,251.24333318074548L1254.8733787056833,219.83791653315222L1257.1826899047737,282.6487498283386L1259.3970979039013,282.6487498283386L1261.4849683030789,314.0541664759318L1262.49726910268,219.83791653315222L1263.1932259024059,125.62166659037274L1263.4146667023188,282.6487498283386L1263.6993763022065,219.83791653315222L1263.7626451021815,62.81083329518635L1263.8259139021568,219.83791653315222L1264.3320643019574,219.83791653315222L1266.0086875012971,125.62166659037274L1266.831181900973,282.6487498283386L1267.7485795006116,62.81083329518635L1268.9823211001255,188.43249988555908L1269.8048154998016,94.21624994277954L1270.8487506993904,-188.43249988555908L1272.2406642988421,314.0541664759318L1277.3021682968483,0L1279.3584042960383,62.81083329518635L1280.054361095764,282.6487498283386L1280.4656082956021,157.02708323796588L1282.0156938949915,157.02708323796588L1282.8065538946798,94.21624994277954L1283.692317094331,219.83791653315222L1283.977026694219,94.21624994277954L1285.4638434936332,282.6487498283386L1287.6466170927733,188.43249988555908L1289.5446810920257,282.6487498283386L1292.2336050909664,-125.6216665903727L1293.024465090655,219.83791653315222L1294.258206690169,125.62166659037274L1295.365410689733,376.86499977111816L1297.0103994890849,188.43249988555908L1297.263474688985,314.0541664759318L1301.5024842873154,282.6487498283386L1302.8943978867671,125.62166659037274L1305.29861228582,188.43249988555908L1305.5833218857076,62.81083329518635L1312.8592338828416,94.21624994277954L1313.7133626825052,219.83791653315222L1315.8645018816578,251.24333318074548L1316.3706522814584,314.0541664759318L1316.9717058812216,219.83791653315222L1318.7115978805364,251.24333318074548L1318.9646730804366,251.24333318074548L1320.1035114799881,125.62166659037274L1324.3425210783182,219.83791653315222L1325.0384778780442,251.24333318074548L1325.1017466780193,282.6487498283386L1325.1966498779818,282.6487498283386L1325.5762626778323,125.62166659037274L1326.0191442776577,282.6487498283386L1326.6518322774084,125.62166659037274L1326.8100042773463,282.6487498283386L1326.9049074773088,94.21624994277954L1328.5182618766733,282.6487498283386L1330.7010354758133,188.43249988555908L1331.1439170756391,-188.43249988555908L1332.314389875178,125.62166659037274L1334.08591627448,251.24333318074548L1334.4022602743555,219.83791653315222L1335.0982170740815,188.43249988555908L1340.25462427205,125.62166659037274L1344.3987306704178,188.43249988555908L1345.2528594700811,251.24333318074548L1345.3161282700564,157.02708323796588L1346.8029450694708,188.43249988555908L1347.9734178690096,94.21624994277954L1349.112256268561,94.21624994277954L1349.9663850682246,188.43249988555908L1352.33896506729,157.02708323796588L1354.047222666617,94.21624994277954L1354.2053946665549,157.02708323796588L1358.2862322649473,282.6487498283386L1359.678145864399,251.24333318074548L1365.846853861969,-62.81083329518639L1372.490077859352,219.83791653315222L1372.5217122593394,157.02708323796588L1372.9645938591652,94.21624994277954L1373.186034659078,157.02708323796588L1375.6851522580935,251.24333318074548L1376.665818657707,62.81083329518635L1378.0893666571465,282.6487498283386L1385.7448914541308,94.21624994277954L1386.820461053707,251.24333318074548L1388.117471453196,31.405416647593196L1388.686890652972,251.24333318074548L1389.034869052835,94.21624994277954L1392.7044594513893,125.62166659037274L1393.33714745114,219.83791653315222L1394.4443514507038,-31.405416647593153L1398.3670170491587,94.21624994277954L1399.4109522487474,219.83791653315222L1399.442586648735,31.405416647593196L1404.5357250467287,188.43249988555908L1406.1807138460808,251.24333318074548L1407.0032082457567,188.43249988555908L1409.3441538448346,125.62166659037274L1410.5146266443735,219.83791653315222L1410.9258738442115,282.6487498283386L1413.8995074430402,-157.02708323796594L1414.4372922428283,282.6487498283386L1414.7536362427036,282.6487498283386L1414.8485394426662,62.81083329518635L1417.5690978415946,31.405416647593196L1420.6060002403983,188.43249988555908L1421.934645039875,0L1423.3898274393018,125.62166659037274L1423.642902639202,125.62166659037274L1424.4970314388654,188.43249988555908L1425.1297194386163,62.81083329518635L1427.0277834378687,157.02708323796588L1429.0523850370712,314.0541664759318L1429.0840194370587,219.83791653315222L1429.685073036822,94.21624994277954L1430.982083436311,157.02708323796588L1431.0137178362986,188.43249988555908L1431.4249650361367,188.43249988555908L1432.563803435688,62.81083329518635L1433.860813835177,62.81083329518635L1434.050620235102,94.21624994277954L1435.1894586346536,0L1436.7079098340555,282.6487498283386L1440.0611562327347,-188.43249988555908L1440.6305754325103,282.6487498283386L1442.3071986318498,125.62166659037274L1443.0664242315509,94.21624994277954L1448.6340786293576,94.21624994277954L1448.8871538292578,219.83791653315222L1450.4056050286597,157.02708323796588L1451.4811746282362,94.21624994277954L1452.6832818277626,62.81083329518635L1453.347604227501,62.81083329518635L1455.5936466266162,188.43249988555908L1456.5426786262422,157.02708323796588L1457.3968074259058,219.83791653315222L1457.4917106258686,0L1457.6182482258187,314.0541664759318L1459.3581402251332,188.43249988555908L1459.3897746251207,125.62166659037274L1463.5022466235007,31.405416647593196L1464.3880098231518,94.21624994277954L1466.0013642225163,94.21624994277954L1467.0136650221177,157.02708323796588L1470.1454706208838,62.81083329518635L1471.7588250202484,31.405416647593196L1471.9486314201736,188.43249988555908L1472.1384378200987,94.21624994277954L1472.2966098200363,-94.21624994277954L1473.087469819725,125.62166659037274L1473.3089106196378,94.21624994277954L1473.7834266194507,125.62166659037274L1473.846695419426,125.62166659037274L1474.4793834191767,251.24333318074548L1475.8712970186284,-31.405416647593153L1476.314178618454,-62.81083329518639L1479.6041562171579,62.81083329518635L1484.0329722154133,62.81083329518635L1485.076907415002,282.6487498283386L1485.5514234148152,-31.405416647593153L1485.8044986147156,-62.81083329518639L1487.1964122141671,94.21624994277954L1488.4301538136813,219.83791653315222L1488.4617882136688,94.21624994277954L1489.6638954131954,94.21624994277954L1490.5496586128463,282.6487498283386L1490.8660026127216,314.0541664759318L1490.9609058126844,-62.81083329518639L1498.3633554097682,188.43249988555908L1498.458258609731,-282.6487498283386L1500.4195914089582,0L1501.4002578085722,157.02708323796588L1503.74120340765,125.62166659037274L1508.9292450056064,125.62166659037274L1509.6252018053322,157.02708323796588L1511.1120186047465,-62.81083329518639L1513.5795018037745,0L1513.8642114036622,282.6487498283386L1514.085652203575,0L1514.3070930034878,125.62166659037274L1514.8765122032637,219.83791653315222L1515.2877594031015,-31.405416647593153L1516.9011138024662,94.21624994277954L1517.597070602192,251.24333318074548L1522.8167466001357,125.62166659037274L1524.3351977995376,-282.6487498283386L1524.5566385994505,282.6487498283386L1525.7587457989769,125.62166659037274L1525.8536489989394,125.62166659037274L1527.8149817981669,188.43249988555908L1530.34573379717,219.83791653315222L1534.0153241957246,282.6487498283386L1534.3949369955749,314.0541664759318L1535.9766569949518,-314.05416647593177L1537.1154953945031,219.83791653315222L1537.7798177942416,62.81083329518635L1542.4617089923972,62.81083329518635L1543.031128192173,62.81083329518635L1546.2894713908895,219.83791653315222L1547.3017721904907,-31.405416647593153L1554.830759387525,157.02708323796588L1555.779791387151,219.83791653315222L1558.1523713862164,62.81083329518635L1558.247274586179,-408.2704164187114L1559.0381345858675,0L1561.126004985045,62.81083329518635L1561.5688865848706,219.83791653315222L1563.1506065842475,94.21624994277954L1563.9098321839483,0L1564.7323265836244,-94.21624994277954L1565.0170361835123,0L1565.3017457834,188.43249988555908L1565.3966489833626,125.62166659037274L1566.5987561828892,-62.81083329518639L1569.825464981618,-94.21624994277954L1571.0592065811322,94.21624994277954L1572.577657780534,282.6487498283386L1572.9889049803721,0L1573.1787113802973,62.81083329518635L1573.2103457802848,94.21624994277954L1573.9063025800108,125.62166659037274L1574.159377779911,-219.83791653315222L1575.8676353792382,-157.02708323796594L1580.1382793775558,94.21624994277954L1580.9607737772317,62.81083329518635L1582.1628809767583,31.405416647593196L1583.1435473763718,94.21624994277954L1583.7762353761227,0L1584.5670953758113,31.405416647593196L1586.2753529751383,-94.21624994277954L1588.078513774428,219.83791653315222L1589.5336961738549,376.86499977111816L1593.899243372135,188.43249988555908L1595.2278881716118,-125.6216665903727L1600.13122016968,-62.81083329518639L1600.763908169431,62.81083329518635L1600.8904457693811,-62.81083329518639L1601.2700585692317,157.02708323796588L1603.3262945684216,314.0541664759318L1605.6672401674994,-94.21624994277954L1607.1224225669262,157.02708323796588L1612.1839265649326,94.21624994277954L1612.5635393647829,-94.21624994277954L1622.022224961057,-31.405416647593153L1627.3051697589758,31.405416647593196L1628.9185241583402,157.02708323796588L1629.298136958191,125.62166659037274L1632.65138335687,-376.86499977111816L1636.1944361554742,94.21624994277954L1641.0028649535802,125.62166659037274L1641.5090153533808,-125.6216665903727L1642.110068953144,219.83791653315222L1642.1417033531316,251.24333318074548L1645.3684121518604,94.21624994277954L1645.5265841517983,-125.6216665903727L1646.096003351574,-314.05416647593177L1646.4439817514367,251.24333318074548L1646.981766551225,314.0541664759318L1647.1083041511752,314.0541664759318L1647.6144545509758,125.62166659037274L1648.0889705507886,-94.21624994277954L1648.5318521506144,31.405416647593196L1649.7972281501159,-251.24333318074548L1654.3525817483217,-157.02708323796594L1654.6056569482218,157.02708323796588L1654.668925748197,219.83791653315222L1655.2383449479726,251.24333318074548L1655.9975705476734,94.21624994277954L1659.5089889462902,94.21624994277954L1662.2611817452062,-345.459583123525L1664.3174177443962,157.02708323796588L1664.7602993442217,-157.02708323796594L1667.3543201431999,157.02708323796588L1669.5687281423277,0L1673.7128345406952,219.83791653315222L1674.883307340234,31.405416647593196L1676.591564939561,-31.405416647593153L1680.4509617380409,62.81083329518635L1682.6021009371934,-157.02708323796594L1682.8868105370814,345.45958312352496L1683.1082513369943,62.81083329518635L1684.4368961364708,157.02708323796588L1684.5950681364084,-94.21624994277954L1687.631970535212,-94.21624994277954L1688.612636934826,94.21624994277954L1688.8024433347512,0L1690.036184934265,282.6487498283386L1692.7567433331935,219.83791653315222L1695.9834521319221,251.24333318074548L1696.7110433316357,-188.43249988555908L1696.837580931586,-94.21624994277954L1697.723344131237,125.62166659037274L1698.5774729309005,62.81083329518635L1698.6407417308756,251.24333318074548L1699.3050641306138,94.21624994277954L1700.0326553303273,94.21624994277954L1703.2909985290437,94.21624994277954L1711.1995985259284,-282.6487498283386L1711.579211325779,94.21624994277954L1712.1802649255421,-282.6487498283386L1713.4772753250313,-533.892083009084L1714.6161137245826,125.62166659037274L1716.7356185237477,314.0541664759318L1718.1908009231745,31.405416647593196L1719.0132953228504,0L1719.6776177225888,62.81083329518635L1723.5370145210686,125.62166659037274L1724.9289281205204,0L1730.1169697184764,314.0541664759318L1730.4649481183394,62.81083329518635L1732.0466681177163,0L1735.2417425164579,282.6487498283386L1735.5897209163206,-62.81083329518639L1738.658257715112,-188.43249988555908L1739.1011393149377,314.0541664759318L1739.544020914763,188.43249988555908L1739.8603649146385,251.24333318074548" fill="none"></path></g></g></g></g></g></g><g transform="translate(30, 376)" clip-path="url(#clip_1)"><clipPath id="clip_1"><rect width="1898" height="23"></rect></clipPath><g><g><line x1="0" y1="0" x2="0" y2="5" style="visibility: inherit;" fill="rgb(0, 0, 0)" stroke="rgb(204, 204, 204)" stroke-width="1px"></line><line x1="158.17199993769327" y1="0" x2="158.17199993769327" y2="5" style="visibility: inherit;" fill="rgb(0, 0, 0)" stroke="rgb(204, 204, 204)" stroke-width="1px"></line><line x1="316.34399987538654" y1="0" x2="316.34399987538654" y2="5" style="visibility: inherit;" fill="rgb(0, 0, 0)" stroke="rgb(204, 204, 204)" stroke-width="1px"></line><line x1="474.5159998130798" y1="0" x2="474.5159998130798" y2="5" style="visibility: inherit;" fill="rgb(0, 0, 0)" stroke="rgb(204, 204, 204)" stroke-width="1px"></line><line x1="632.6879997507731" y1="0" x2="632.6879997507731" y2="5" style="visibility: inherit;" fill="rgb(0, 0, 0)" stroke="rgb(204, 204, 204)" stroke-width="1px"></line><line x1="790.8599996884664" y1="0" x2="790.8599996884664" y2="5" style="visibility: inherit;" fill="rgb(0, 0, 0)" stroke="rgb(204, 204, 204)" stroke-width="1px"></line><line x1="949.0319996261596" y1="0" x2="949.0319996261596" y2="5" style="visibility: inherit;" fill="rgb(0, 0, 0)" stroke="rgb(204, 204, 204)" stroke-width="1px"></line><line x1="1107.203999563853" y1="0" x2="1107.203999563853" y2="5" style="visibility: inherit;" fill="rgb(0, 0, 0)" stroke="rgb(204, 204, 204)" stroke-width="1px"></line><line x1="1265.3759995015462" y1="0" x2="1265.3759995015462" y2="5" style="visibility: inherit;" fill="rgb(0, 0, 0)" stroke="rgb(204, 204, 204)" stroke-width="1px"></line><line x1="1423.5479994392394" y1="0" x2="1423.5479994392394" y2="5" style="visibility: inherit;" fill="rgb(0, 0, 0)" stroke="rgb(204, 204, 204)" stroke-width="1px"></line><line x1="1581.7199993769327" y1="0" x2="1581.7199993769327" y2="5" style="visibility: inherit;" fill="rgb(0, 0, 0)" stroke="rgb(204, 204, 204)" stroke-width="1px"></line><line x1="1739.891999314626" y1="0" x2="1739.891999314626" y2="5" style="visibility: inherit;" fill="rgb(0, 0, 0)" stroke="rgb(204, 204, 204)" stroke-width="1px"></line><line x1="1898.0639992523193" y1="0" x2="1898.0639992523193" y2="5" style="visibility: inherit;" fill="rgb(0, 0, 0)" stroke="rgb(204, 204, 204)" stroke-width="1px"></line></g><g transform="translate(0, 8)"><text style="text-anchor: middle; visibility: hidden; font-family: Roboto, sans-serif; font-size: 12px; font-weight: 200;" x="0" y="0" dx="0em" dy="0.95em" fill="rgb(33, 33, 33)" stroke="none" stroke-width="1px">-5k</text><text style="text-anchor: middle; visibility: inherit; font-family: Roboto, sans-serif; font-size: 12px; font-weight: 200;" x="158.17199993769327" y="0" dx="0em" dy="0.95em" fill="rgb(33, 33, 33)" stroke="none" stroke-width="1px">0</text><text style="text-anchor: middle; visibility: inherit; font-family: Roboto, sans-serif; font-size: 12px; font-weight: 200;" x="316.34399987538654" y="0" dx="0em" dy="0.95em" fill="rgb(33, 33, 33)" stroke="none" stroke-width="1px">5k</text><text style="text-anchor: middle; visibility: inherit; font-family: Roboto, sans-serif; font-size: 12px; font-weight: 200;" x="474.5159998130798" y="0" dx="0em" dy="0.95em" fill="rgb(33, 33, 33)" stroke="none" stroke-width="1px">10k</text><text style="text-anchor: middle; visibility: inherit; font-family: Roboto, sans-serif; font-size: 12px; font-weight: 200;" x="632.6879997507731" y="0" dx="0em" dy="0.95em" fill="rgb(33, 33, 33)" stroke="none" stroke-width="1px">15k</text><text style="text-anchor: middle; visibility: inherit; font-family: Roboto, sans-serif; font-size: 12px; font-weight: 200;" x="790.8599996884664" y="0" dx="0em" dy="0.95em" fill="rgb(33, 33, 33)" stroke="none" stroke-width="1px">20k</text><text style="text-anchor: middle; visibility: inherit; font-family: Roboto, sans-serif; font-size: 12px; font-weight: 200;" x="949.0319996261596" y="0" dx="0em" dy="0.95em" fill="rgb(33, 33, 33)" stroke="none" stroke-width="1px">25k</text><text style="text-anchor: middle; visibility: inherit; font-family: Roboto, sans-serif; font-size: 12px; font-weight: 200;" x="1107.203999563853" y="0" dx="0em" dy="0.95em" fill="rgb(33, 33, 33)" stroke="none" stroke-width="1px">30k</text><text style="text-anchor: middle; visibility: inherit; font-family: Roboto, sans-serif; font-size: 12px; font-weight: 200;" x="1265.3759995015462" y="0" dx="0em" dy="0.95em" fill="rgb(33, 33, 33)" stroke="none" stroke-width="1px">35k</text><text style="text-anchor: middle; visibility: inherit; font-family: Roboto, sans-serif; font-size: 12px; font-weight: 200;" x="1423.5479994392394" y="0" dx="0em" dy="0.95em" fill="rgb(33, 33, 33)" stroke="none" stroke-width="1px">40k</text><text style="text-anchor: middle; visibility: inherit; font-family: Roboto, sans-serif; font-size: 12px; font-weight: 200;" x="1581.7199993769327" y="0" dx="0em" dy="0.95em" fill="rgb(33, 33, 33)" stroke="none" stroke-width="1px">45k</text><text style="text-anchor: middle; visibility: inherit; font-family: Roboto, sans-serif; font-size: 12px; font-weight: 200;" x="1739.891999314626" y="0" dx="0em" dy="0.95em" fill="rgb(33, 33, 33)" stroke="none" stroke-width="1px">50k</text><text style="text-anchor: middle; visibility: hidden; font-family: Roboto, sans-serif; font-size: 12px; font-weight: 200;" x="1898.0639992523193" y="0" dx="0em" dy="0.95em" fill="rgb(33, 33, 33)" stroke="none" stroke-width="1px">55k</text></g><line x1="0" y1="0" x2="1898.0639992523193" y2="0" fill="rgb(0, 0, 0)" stroke="rgb(204, 204, 204)" stroke-width="1px"></line></g></g></g></g></svg>